<svg width="50" height="47" viewBox="0 0 50 47" fill="none" xmlns="http://www.w3.org/2000/svg">
<path d="M0 20.8706C0 21.4392 0.460464 21.9011 1.03053 21.9011H9.56863L16.4421 37.6099C16.6051 37.988 16.9787 38.2278 17.3855 38.2278H43.1543C43.7229 38.2278 44.1848 37.7666 44.1848 37.1973C44.1848 36.6316 43.7229 36.1667 43.1543 36.1667H18.0604L11.1876 20.458C11.0247 20.0817 10.6521 19.8401 10.2435 19.8401H1.03053C0.460464 19.8401 0 20.302 0 20.8706ZM35.1561 39.6622C37.0623 39.6622 38.6019 41.2039 38.6019 43.1035C38.6019 45.0075 37.0623 46.5493 35.1561 46.5493C33.2554 46.5493 31.714 45.0075 31.714 43.1035C31.714 41.2039 33.2554 39.6622 35.1561 39.6622ZM22.91 39.6622C24.8133 39.6622 26.3565 41.2039 26.3565 43.1035C26.3565 45.0075 24.8133 46.5493 22.91 46.5493C21.0067 46.5493 19.4668 45.0075 19.4668 43.1035C19.4668 41.2039 21.0067 39.6622 22.91 39.6622ZM43.7681 32.5923L49.8344 10.0927C50.5228 7.53256 49.0021 4.89114 46.4426 4.20301L36.4132 1.49907C35.3161 1.20043 34.191 1.35379 33.2043 1.80212C32.1881 0.540253 30.5849 -0.154123 28.9218 0.0290335L18.5999 1.19233C17.3237 1.33614 16.1766 1.96909 15.3778 2.97425C14.5764 3.97536 14.2156 5.23538 14.3612 6.51123L16.9718 29.664C17.1163 30.9361 17.7496 32.0832 18.7526 32.8821C19.6099 33.5684 20.6536 33.9314 21.736 33.9314C21.9185 33.9314 22.1031 33.9211 22.2884 33.9005L27.444 33.1259C27.5783 33.1719 27.7077 33.2381 27.8438 33.2741L37.8762 35.9773C38.2856 36.088 38.7085 36.1447 39.1289 36.1447C41.2996 36.1484 43.205 34.6872 43.7681 32.5923ZM31.5389 3.02978C31.0726 3.56197 30.7085 4.18205 30.5198 4.8893L30.113 6.40199C29.7059 5.69658 28.91 5.26002 28.0465 5.35528C26.8861 5.48695 26.049 6.5355 26.184 7.6977C26.3138 8.85989 27.3605 9.69734 28.522 9.56052C28.8192 9.52816 29.0888 9.43327 29.3341 9.29425L28.5834 12.0868C27.4915 12.0173 26.5003 12.7709 26.3451 13.8739C26.2138 14.8036 26.7184 15.6518 27.5128 16.0482L24.8931 25.7677C24.5694 24.8644 23.6919 24.248 22.6956 24.359C21.5374 24.4881 20.6992 25.5385 20.835 26.7018C20.9637 27.8607 22.0089 28.6989 23.1733 28.565C23.6448 28.5128 24.0373 28.2774 24.3605 27.9813C24.2145 29.0317 24.398 30.0946 24.9313 31.0303C25.0034 31.1575 25.0979 31.2624 25.1803 31.3808L22.0214 31.8534C21.3245 31.9277 20.6113 31.7265 20.0394 31.2675C19.4679 30.8107 19.1056 30.1564 19.0229 29.4264L16.4109 6.27731C16.3281 5.548 16.5326 4.83009 16.9876 4.26002C17.4491 3.68554 18.1001 3.32217 18.8338 3.24163L29.1572 2.07759C30.0733 1.97314 30.956 2.35416 31.5389 3.02978ZM47.8483 9.5631L41.7795 32.0593C41.3922 33.4867 39.8501 34.3815 38.4114 33.9931L28.38 31.2903C27.671 31.0968 27.077 30.6445 26.7125 30.0108C26.3451 29.3708 26.2487 28.6342 26.4411 27.9196L32.504 5.42442C32.6496 4.87201 32.9755 4.4189 33.3874 4.06362C33.4775 4.0125 33.5676 3.95292 33.6346 3.88047C34.0752 3.57962 34.5945 3.39242 35.1509 3.39242C35.3929 3.39242 35.6342 3.42772 35.8747 3.48878L45.9035 6.19309C47.3684 6.58258 48.2415 8.09748 47.8483 9.5631ZM42.5706 12.928C41.4397 12.6271 40.7736 11.4631 41.0741 10.3358C41.3775 9.20193 42.5405 8.53661 43.6696 8.83967C44.8005 9.14051 45.4643 10.3045 45.1635 11.4314C44.859 12.5609 43.7005 13.231 42.5706 12.928ZM35.3768 10.9868C34.2488 10.6859 33.5816 9.5197 33.8821 8.38987C34.1877 7.26298 35.3496 6.59582 36.4786 6.89556C37.6085 7.19935 38.2775 8.36559 37.9726 9.49285C37.6677 10.6197 36.5059 11.2939 35.3768 10.9868ZM40.9814 18.8118C39.8527 18.5065 39.1841 17.3447 39.4893 16.2174C39.7902 15.0876 40.9535 14.4182 42.0844 14.7213C43.2113 15.0265 43.8774 16.1865 43.5769 17.3175C43.272 18.4473 42.1083 19.1126 40.9814 18.8118ZM34.8917 12.7845C36.0219 13.0872 36.689 14.2512 36.3882 15.3807C36.0851 16.5076 34.9226 17.1759 33.792 16.8768C32.6622 16.572 31.9946 15.4076 32.2973 14.2777C32.6004 13.1505 33.7604 12.4851 34.8917 12.7845ZM39.3944 24.6934C38.2639 24.3925 37.5974 23.2285 37.9005 22.1016C38.2043 20.9692 39.3661 20.3064 40.4934 20.6073C41.6269 20.9122 42.2926 22.0729 41.9899 23.1987C41.6868 24.3351 40.5268 24.999 39.3944 24.6934ZM33.3069 18.672C34.4352 18.9747 35.1042 20.1369 34.8008 21.2678C34.4985 22.3958 33.3315 23.0633 32.205 22.7592C31.0759 22.4572 30.4076 21.295 30.7125 20.1659C31.016 19.0321 32.1782 18.3671 33.3069 18.672ZM38.9108 26.4944C40.0399 26.7963 40.7056 27.9593 40.4033 29.0906C40.1021 30.2175 38.938 30.8857 37.8078 30.5845C36.6787 30.2807 36.0138 29.1152 36.3165 27.988C36.6195 26.8603 37.7839 26.1866 38.9108 26.4944ZM31.7184 24.5525C32.846 24.8563 33.5154 26.0218 33.2142 27.1487C32.9111 28.2756 31.7471 28.9464 30.6162 28.6459C29.4896 28.3403 28.821 27.1777 29.1237 26.0497C29.4286 24.9195 30.5886 24.2546 31.7184 24.5525ZM21.1193 10.4013C19.956 10.5311 18.9118 9.69697 18.7765 8.53698C18.6477 7.37883 19.4808 6.32696 20.64 6.1953C21.7989 6.0651 22.8508 6.90255 22.9821 8.05886C23.1167 9.2251 22.2796 10.2696 21.1193 10.4013ZM21.803 16.4561C20.6404 16.5841 19.5941 15.7518 19.4613 14.5936C19.33 13.4355 20.1638 12.3818 21.3237 12.2501C22.4819 12.1203 23.533 12.9555 23.6673 14.1177C23.7986 15.2796 22.9648 16.3263 21.803 16.4561ZM22.4837 22.5128C21.3237 22.6426 20.2778 21.8085 20.1432 20.6521C20.0144 19.4896 20.8475 18.4436 22.0078 18.3105C23.1678 18.1784 24.2193 19.0137 24.3473 20.1722C24.4852 21.3366 23.6456 22.3807 22.4837 22.5128Z" fill="black"/>
</svg>
