<svg width="43" height="60" viewBox="0 0 43 60" fill="none" xmlns="http://www.w3.org/2000/svg">
<path d="M30.0709 43.8744C30.1995 43.8744 30.3281 43.8359 30.4568 43.7587C30.6818 43.6044 30.7783 43.3151 30.7011 43.0515L29.7879 39.9976L32.2575 38.1138C32.4762 37.9467 32.5598 37.6574 32.4762 37.4002C32.3862 37.1366 32.1482 36.963 31.8716 36.9566L28.8167 36.9116L27.8649 33.922C27.7813 33.6584 27.5368 33.4719 27.2603 33.4719C26.9774 33.4655 26.7329 33.6455 26.6429 33.9091L25.6461 36.8601L22.5847 36.9051C22.3082 36.9116 22.0637 37.0916 21.9802 37.3488C21.8901 37.6123 21.9802 37.8952 22.1988 38.0624L24.6621 39.9462L23.7102 42.9936C23.6266 43.2572 23.7231 43.5466 23.9482 43.7073C24.1732 43.868 24.4755 43.868 24.7006 43.7073L27.196 41.92L29.6914 43.7523C29.8007 43.8359 29.9358 43.8744 30.0709 43.8744ZM27.5755 40.602C27.4661 40.5184 27.3311 40.4798 27.196 40.4798C27.0674 40.4798 26.9324 40.5184 26.8166 40.5891L25.5046 41.5278L26.0191 39.8819C26.0962 39.6247 26.0062 39.3482 25.794 39.1811L24.4498 38.1524L26.1091 38.1267C26.3792 38.1203 26.6172 37.9467 26.7072 37.6895L27.2217 36.1722L27.717 37.7281C27.8006 37.9917 28.045 38.1717 28.3215 38.1781L29.9808 38.2038L28.6366 39.2325C28.4244 39.3933 28.3344 39.6697 28.4115 39.9269L28.9003 41.5728L27.5755 40.602Z" fill="black"/>
<path d="M39.8945 40.0653C40.1373 37.4119 39.5304 34.7258 38.1476 32.3004C35.4057 27.4716 29.8831 24.8687 24.3967 25.8289C21.6834 26.3296 19.2334 27.6186 17.3073 29.5496C15.376 31.4882 14.126 33.9286 13.6836 36.5993C13.1978 39.389 13.5488 42.142 14.7021 44.5639C15.8479 46.9807 17.7425 48.9193 20.1969 50.2054L18.3706 55.1582C18.3101 55.3262 18.3186 55.5143 18.3995 55.6693C18.4816 55.8307 18.6212 55.9488 18.7933 55.9955L24.4854 57.6386C24.5821 57.6665 24.688 57.6732 24.7829 57.6556C24.9979 57.616 25.1804 57.4711 25.2656 57.2593L27.3864 51.8469L30.6752 51.24L34.5627 55.5436C34.7179 55.7111 34.9476 55.7864 35.1564 55.7479C35.2512 55.7304 35.3426 55.6939 35.4281 55.6258L40.1588 52.0592C40.303 51.9542 40.3911 51.7941 40.4102 51.614C40.4293 51.434 40.3714 51.2616 40.2549 51.1262L36.8053 47.1406C38.5902 45.1179 39.6573 42.6785 39.8945 40.0653ZM24.2806 56.2446L19.818 54.9564L21.61 50.1016L22.5343 47.597C24.004 48.2607 25.6443 48.5726 27.3414 48.449L24.2806 56.2446ZM18.2012 40.2767C17.3483 35.6549 20.4564 31.1979 25.1302 30.3354C29.7788 29.4776 34.2487 32.5427 35.1004 37.1581C35.9487 41.7546 32.8561 46.1891 28.2139 47.0458C23.5401 47.9083 19.0494 44.8731 18.2012 40.2767ZM27.9362 50.4313L28.5448 48.8741L29.6628 50.1127L27.9362 50.4313ZM38.836 51.4469L35.1209 54.2442L29.5309 48.0515C31.13 47.5733 32.5595 46.708 33.7162 45.5335L35.4522 47.5341C35.4597 47.5392 35.4684 47.5507 35.4695 47.557L38.836 51.4469ZM35.9572 46.1595L34.561 44.5473C34.6344 44.4488 34.7129 44.3428 34.7863 44.2442C36.2804 42.0987 36.8403 39.4979 36.3666 36.931C35.3854 31.6138 30.2424 28.091 24.8981 29.0772C19.5285 30.0681 15.9563 35.1992 16.9376 40.5164C17.4521 43.3046 19.1308 45.5969 21.3893 46.9911L20.6529 48.9903C16.2986 46.623 14.0707 41.9215 14.9595 36.8149C15.7695 31.919 19.659 28.0108 24.6301 27.0934C29.5714 26.2273 34.5567 28.5762 37.0356 32.9371C39.5493 37.3439 39.1132 42.4585 35.9572 46.1595Z" fill="black"/>
<path fill-rule="evenodd" clip-rule="evenodd" d="M14.2848 7.69335L14.288 12.3042C15.8275 13.4302 21.0071 17.4904 21.0071 21.1388V26.1805V27.6524C20.4291 27.7655 19.8676 27.9272 19.3265 28.133V27.0207H10.0833V46.3473H15.3353C15.933 46.987 16.604 47.5521 17.3341 48.0278H9.24306C8.77868 48.0278 8.40281 47.652 8.40281 47.1875V26.1805C8.40281 25.7161 8.77858 25.3402 9.24306 25.3402H19.3265V21.1388C19.3265 18.448 14.7362 14.6586 12.9669 13.4252C12.7421 13.2685 12.6075 13.0108 12.6075 12.7367L12.6051 8.53449H8.40281V12.7359C8.40281 13.01 8.2682 13.2677 8.04339 13.4252C6.27338 14.661 1.6805 18.4579 1.6805 21.1388V25.3402H4.20136C4.66575 25.3402 5.04161 25.716 5.04161 26.1805V47.1875C5.04161 47.6519 4.66584 48.0278 4.20136 48.0278H1.6805V49.7084H19.3265V49.0425C19.8676 49.2484 20.4291 49.41 21.0071 49.5231V50.5486C21.0071 51.013 20.6313 51.3889 20.1668 51.3889H0.840252C0.375864 51.3889 0 51.0131 0 50.5486V47.1875V26.1805V21.1388C0 17.4961 5.18203 13.4317 6.72231 12.3042V7.69413V1.81218C6.72231 1.34779 7.09807 0.971924 7.56256 0.971924H13.4445C13.9089 0.971924 14.2848 1.34769 14.2848 1.81218V7.69335ZM12.6043 2.65253H8.40281V6.85398H12.6043V2.65253ZM3.3611 27.0207H1.6805V46.3473H3.3611V27.0207Z" fill="black"/>
</svg>
