<svg width="50" height="45" viewBox="0 0 50 45" fill="none" xmlns="http://www.w3.org/2000/svg">
<path d="M45 12.5001H5C2.23838 12.5001 0 14.7383 0 17.5001V40.0001C0 42.7617 2.23838 45.0001 5 45.0001H45C47.7616 45.0001 50 42.7617 50 40.0001V17.5001C50 14.7383 47.7616 12.5001 45 12.5001ZM47.5 40.0001C47.5 41.3784 46.3783 42.5001 45 42.5001H5C3.62168 42.5001 2.5 41.3784 2.5 40.0001V17.5001C2.5 16.1217 3.62168 15.0001 5 15.0001H45C46.3783 15.0001 47.5 16.1217 47.5 17.5001V40.0001Z" fill="black"/>
<path d="M38.285 2.88833C37.1175 0.385006 34.1433 -0.697513 31.6399 0.469967L11.2025 10H17.1176L32.6968 2.73589C33.9459 2.15337 35.4368 2.69585 36.0192 3.94507L38.8434 10H41.6017L38.285 2.88833Z" fill="black"/>
<path d="M15 17.5001H7.5C6.11914 17.5001 5 18.6192 5 20.0001V25.0001C5 26.3809 6.11914 27.5001 7.5 27.5001H15C16.3809 27.5001 17.5 26.3809 17.5 25.0001V20.0001C17.5 18.6192 16.3809 17.5001 15 17.5001ZM15 25.0001H7.5V20.0001H15V25.0001Z" fill="black"/>
<path d="M30 35.0001H5V37.5001H30V35.0001Z" fill="black"/>
<path d="M41.25 32.5001C40.285 32.5001 39.4142 32.8751 38.75 33.4734C38.0858 32.8751 37.215 32.5001 36.25 32.5001C34.1792 32.5001 32.5 34.1793 32.5 36.2501C32.5 38.3209 34.1792 40.0001 36.25 40.0001C37.215 40.0001 38.0858 39.6251 38.75 39.0267C39.4142 39.6251 40.285 40.0001 41.25 40.0001C43.3208 40.0001 45 38.3209 45 36.2501C45 34.1793 43.3208 32.5001 41.25 32.5001ZM36.25 37.5001C35.5608 37.5001 35 36.9392 35 36.2501C35 35.5609 35.5608 35.0001 36.25 35.0001C36.9392 35.0001 37.5 35.5609 37.5 36.2501C37.5 36.9392 36.9392 37.5001 36.25 37.5001ZM41.25 37.5001C40.5608 37.5001 40 36.9392 40 36.2501C40 35.5609 40.5608 35.0001 41.25 35.0001C41.9392 35.0001 42.5 35.5609 42.5 36.2501C42.5 36.9392 41.9392 37.5001 41.25 37.5001Z" fill="black"/>
</svg>
