<svg width="30" height="28" viewBox="0 0 30 28" fill="none" xmlns="http://www.w3.org/2000/svg">
<path d="M28.6202 13.549L28.3514 13.4846L28.6202 13.549L28.6242 13.5325C28.8903 12.4222 29.1155 11.4828 29.2031 10.7157C29.295 9.91179 29.2635 9.10064 28.8322 8.34942C28.6524 8.03639 28.4277 7.75144 28.1652 7.5037C27.5352 6.90916 26.7537 6.68945 25.9505 6.59144C25.1841 6.49792 24.2181 6.49795 23.0763 6.49798H23.0593L3.60747 6.49798L2.53026 2.18914C2.36861 1.54255 1.71341 1.14943 1.06682 1.31108C0.420237 1.47272 0.0271148 2.12793 0.188762 2.77451L1.49307 7.99173L1.49339 7.99304L2.70691 13.0564L2.71088 13.073C3.22385 15.2133 3.63327 16.9217 4.121 18.2539C4.62486 19.6303 5.25382 20.7292 6.27894 21.5765C6.36618 21.6486 6.45506 21.7187 6.54552 21.7867C7.60838 22.5861 8.82366 22.9416 10.2795 23.1108C11.6888 23.2746 13.4454 23.2746 15.6464 23.2746H15.6634H16.3995H16.4141C18.3185 23.2746 19.8387 23.2746 21.068 23.1503C22.3356 23.0221 23.4066 22.7535 24.3779 22.1453C24.8321 21.8609 25.2541 21.5281 25.6365 21.1527C26.4543 20.3498 26.9652 19.371 27.3853 18.1682C27.7927 17.0017 28.147 15.5233 28.5909 13.6713L28.5942 13.6573L28.6202 13.549ZM12.5235 16.1604C11.857 16.1604 11.3168 16.7007 11.3168 17.3672C11.3168 18.0337 11.857 18.574 12.5235 18.574H19.9662C20.6327 18.574 21.173 18.0337 21.173 17.3672C21.173 16.7007 20.6327 16.1604 19.9662 16.1604H12.5235ZM7.81655 19.7161L7.64044 19.9292L7.81655 19.7161C7.24445 19.2433 6.81084 18.5807 6.38746 17.4242C5.95351 16.2388 5.57485 14.6671 5.04023 12.4364L4.19543 8.91154H22.999C24.2375 8.91154 25.0553 8.91367 25.6582 8.98723C26.241 9.05834 26.4216 9.17687 26.5087 9.25902C26.5994 9.34462 26.677 9.44307 26.7391 9.55123C26.7987 9.65503 26.8719 9.8583 26.8052 10.4416C26.7362 11.045 26.5477 11.8408 26.259 13.0452C25.7966 14.9748 25.4692 16.3344 25.1067 17.3724C24.7523 18.3873 24.3991 18.9853 23.9457 19.4304C23.6879 19.6835 23.4033 19.9079 23.0971 20.0996C22.5586 20.4368 21.8947 20.6408 20.8252 20.749C19.7313 20.8596 18.3329 20.861 16.3486 20.861H15.7226C13.4288 20.861 11.812 20.8592 10.5581 20.7134C9.33481 20.5712 8.58946 20.304 7.9963 19.8579C7.93531 19.812 7.87538 19.7647 7.81655 19.7161ZM11.8054 27.5672C12.6792 27.5672 13.3876 26.8588 13.3876 25.985C13.3876 25.1112 12.6792 24.4029 11.8054 24.4029C10.9316 24.4029 10.2232 25.1112 10.2232 25.985C10.2232 26.8588 10.9316 27.5672 11.8054 27.5672ZM19.6398 27.5672C20.5136 27.5672 21.222 26.8588 21.222 25.985C21.222 25.1112 20.5136 24.4029 19.6398 24.4029C18.766 24.4029 18.0576 25.1112 18.0576 25.985C18.0576 26.8588 18.766 27.5672 19.6398 27.5672Z" fill="#7F7F7F" stroke="#7F7F7F" stroke-width="0.55289"/>
</svg>
