<svg width="26" height="25" viewBox="0 0 26 25" fill="none" xmlns="http://www.w3.org/2000/svg">
<path fill-rule="evenodd" clip-rule="evenodd" d="M12.8079 1.42407C10.1198 1.42407 7.94059 3.60324 7.94059 6.29139V6.54756H4.61032C4.18588 6.54756 3.8418 6.89164 3.8418 7.31609C3.8418 7.74053 4.18588 8.08461 4.61032 8.08461H21.0055C21.4299 8.08461 21.774 7.74053 21.774 7.31609C21.774 6.89164 21.4299 6.54756 21.0055 6.54756H17.6752V6.29139C17.6752 3.60324 15.4961 1.42407 12.8079 1.42407ZM12.8079 2.96112C14.6472 2.96112 16.1382 4.45213 16.1382 6.29139V6.54756H9.47764V6.29139C9.47764 4.45213 10.9686 2.96112 12.8079 2.96112Z" fill="#2C2C26"/>
<path d="M6.4001 9.29279C6.35995 8.87025 5.98487 8.56026 5.56233 8.6004C5.13979 8.64055 4.82979 9.01563 4.86994 9.43818C4.96674 10.457 5.14145 11.7124 5.36602 13.326L5.65451 15.3991C5.93033 17.3816 6.08675 18.5059 6.42516 19.427C7.05495 21.1411 8.17837 22.5153 9.6232 23.125C10.4078 23.456 11.3052 23.4557 12.6412 23.4551H12.9746C14.3106 23.4557 15.208 23.456 15.9926 23.125C17.4374 22.5153 18.5609 21.1411 19.1907 19.427C19.5291 18.5059 19.6855 17.3816 19.9613 15.399L20.2498 13.326C20.4744 11.7124 20.6491 10.457 20.7459 9.43818C20.786 9.01564 20.476 8.64055 20.0535 8.6004C19.6309 8.56026 19.2559 8.87025 19.2157 9.29279C19.1224 10.2744 18.9525 11.4969 18.7249 13.1324L18.4561 15.064C18.1584 17.2031 18.022 18.1508 17.7479 18.8969C17.2193 20.3357 16.3403 21.31 15.395 21.7088C14.9337 21.9035 14.3748 21.918 12.8079 21.918C11.241 21.918 10.6821 21.9035 10.2208 21.7088C9.27556 21.31 8.39654 20.3357 7.86791 18.8969C7.59379 18.1508 7.45745 17.2031 7.15975 15.064L6.89093 13.1324C6.66332 11.4969 6.49336 10.2744 6.4001 9.29279Z" fill="#2C2C26"/>
<path d="M11.527 10.3902C11.527 9.96574 11.183 9.62166 10.7585 9.62166C10.3341 9.62166 9.98999 9.96574 9.98999 10.3902V18.5878C9.98999 19.0122 10.3341 19.3563 10.7585 19.3563C11.183 19.3563 11.527 19.0122 11.527 18.5878V10.3902Z" fill="#2C2C26"/>
<path d="M15.6258 10.3902C15.6258 9.96574 15.2817 9.62166 14.8573 9.62166C14.4329 9.62166 14.0888 9.96574 14.0888 10.3902V18.5878C14.0888 19.0122 14.4329 19.3563 14.8573 19.3563C15.2817 19.3563 15.6258 19.0122 15.6258 18.5878V10.3902Z" fill="#2C2C26"/>
</svg>
