<svg width="28" height="28" viewBox="0 0 28 28" fill="none" xmlns="http://www.w3.org/2000/svg">
<path d="M18.0896 10.1228C18.0896 12.3411 16.2913 14.1394 14.073 14.1394V15.9932C17.3151 15.9932 19.9434 13.365 19.9434 10.1228H18.0896ZM14.073 14.1394C11.8547 14.1394 10.0564 12.3411 10.0564 10.1228H8.20258C8.20258 13.365 10.8309 15.9932 14.073 15.9932V14.1394ZM10.0564 10.1228C10.0564 7.90451 11.8547 6.10622 14.073 6.10622V4.2524C10.8309 4.2524 8.20258 6.88067 8.20258 10.1228H10.0564ZM14.073 6.10622C16.2913 6.10622 18.0896 7.90451 18.0896 10.1228H19.9434C19.9434 6.88067 17.3151 4.2524 14.073 4.2524V6.10622ZM10.3654 19.7009H17.7806V17.847H10.3654V19.7009ZM2.64114 13.8304C2.64114 7.5168 7.75936 2.39859 14.073 2.39859V0.544773C6.73552 0.544773 0.787326 6.49297 0.787326 13.8304H2.64114ZM14.073 2.39859C20.3866 2.39859 25.5048 7.5168 25.5048 13.8304H27.3587C27.3587 6.49297 21.4105 0.544773 14.073 0.544773V2.39859ZM25.5048 13.8304C25.5048 17.0725 24.1565 19.9981 21.9874 22.0797L23.271 23.4172C25.7892 21.0005 27.3587 17.598 27.3587 13.8304H25.5048ZM21.9874 22.0797C19.9325 24.0517 17.1451 25.2623 14.073 25.2623V27.1161C17.6424 27.1161 20.8847 25.7072 23.271 23.4172L21.9874 22.0797ZM17.7806 19.7009C19.7284 19.7009 21.3542 21.0882 21.7201 22.9291L23.5383 22.5678C23.0034 19.8762 20.63 17.847 17.7806 17.847V19.7009ZM14.073 25.2623C11.0009 25.2623 8.21351 24.0517 6.15859 22.0797L4.87499 23.4172C7.26125 25.7072 10.5036 27.1161 14.073 27.1161V25.2623ZM6.15859 22.0797C3.98952 19.9981 2.64114 17.0725 2.64114 13.8304H0.787326C0.787326 17.598 2.35675 21.0005 4.87499 23.4172L6.15859 22.0797ZM10.3654 17.847C7.51599 17.847 5.1426 19.8762 4.60767 22.5678L6.42592 22.9291C6.79178 21.0882 8.41758 19.7009 10.3654 19.7009V17.847Z" fill="#7F7F7F"/>
<path d="M17.7822 18.7725H10.3669C7.96836 18.7725 5.96877 20.4807 5.51837 22.747C7.73896 24.878 10.7538 26.1877 14.0746 26.1877C17.3953 26.1877 20.4102 24.878 22.6308 22.747C22.1804 20.4807 20.1808 18.7725 17.7822 18.7725Z" fill="#7F7F7F"/>
<path d="M22.6308 22.747L23.2726 23.4157L23.6389 23.0642L23.5399 22.5663L22.6308 22.747ZM5.51837 22.747L4.60924 22.5663L4.51029 23.0642L4.87657 23.4157L5.51837 22.747ZM10.3669 19.6994H17.7822V17.8456H10.3669V19.6994ZM21.989 22.0782C19.9341 24.0503 17.1467 25.2608 14.0746 25.2608V27.1146C17.644 27.1146 20.8863 25.7058 23.2726 23.4157L21.989 22.0782ZM17.7822 19.6994C19.73 19.6994 21.3558 21.0867 21.7216 22.9276L23.5399 22.5663C23.005 19.8747 20.6316 17.8456 17.7822 17.8456V19.6994ZM14.0746 25.2608C11.0025 25.2608 8.21509 24.0503 6.16017 22.0782L4.87657 23.4157C7.26283 25.7058 10.5051 27.1146 14.0746 27.1146V25.2608ZM10.3669 17.8456C7.51757 17.8456 5.14417 19.8747 4.60924 22.5663L6.4275 22.9276C6.79336 21.0867 8.41916 19.6994 10.3669 19.6994V17.8456Z" fill="#7F7F7F"/>
<path d="M19.0171 10.1254C19.0171 12.8556 16.8038 15.0689 14.0736 15.0689C11.3433 15.0689 9.13007 12.8556 9.13007 10.1254C9.13007 7.39517 11.3433 5.18188 14.0736 5.18188C16.8038 5.18188 19.0171 7.39517 19.0171 10.1254Z" fill="#7F7F7F"/>
<path d="M18.0902 10.1254C18.0902 12.3437 16.2919 14.142 14.0736 14.142V15.9958C17.3157 15.9958 19.944 13.3675 19.944 10.1254H18.0902ZM14.0736 14.142C11.8553 14.142 10.057 12.3437 10.057 10.1254H8.20316C8.20316 13.3675 10.8314 15.9958 14.0736 15.9958V14.142ZM10.057 10.1254C10.057 7.90708 11.8553 6.10879 14.0736 6.10879V4.25498C10.8314 4.25498 8.20316 6.88325 8.20316 10.1254H10.057ZM14.0736 6.10879C16.2919 6.10879 18.0902 7.90708 18.0902 10.1254H19.944C19.944 6.88325 17.3157 4.25498 14.0736 4.25498V6.10879Z" fill="#7F7F7F"/>
</svg>
