<svg width="120" height="120" viewBox="0 0 120 120" fill="none" xmlns="http://www.w3.org/2000/svg">
<path d="M20.6893 30.2958C24.4312 29.9706 29.1637 29.9706 35.5219 29.9706H44.4024C56.8361 29.9706 63.053 29.9706 67.8021 32.4029C71.9795 34.5424 75.3758 37.9564 77.5043 42.1554C79.9241 46.9291 79.9241 53.1783 79.9241 65.6765V77.7221C79.9241 78.9701 79.9241 79.5942 79.8992 80.1215C79.511 88.3643 74.6971 95.4251 67.7876 98.9614L74.6367 103.847C79.1074 107.036 84.9821 102.43 82.9417 97.3365C81.4963 93.7281 84.1575 89.8029 88.0493 89.8029H91.0552C101.46 89.8029 109.896 81.3794 109.896 70.9886V49.8963C109.896 35.9276 109.896 28.9433 107.173 23.608C104.779 18.9149 100.958 15.0993 96.2583 12.7081C90.9156 9.98962 83.9216 9.98962 69.9336 9.98962H59.9431C45.9551 9.98962 38.9611 9.98962 33.6184 12.7081C28.9189 15.0993 25.098 18.9149 22.7034 23.608C21.719 25.5375 21.0905 27.6826 20.6893 30.2958Z" fill="#403377"/>
<path fill-rule="evenodd" clip-rule="evenodd" d="M72.8115 45.7172C74.9288 49.9293 74.9288 55.4432 74.9288 66.4711V77.0995C74.9288 78.2007 74.9288 78.7514 74.9071 79.2167C74.4334 89.3596 66.428 97.4741 56.4215 97.9543C55.9625 97.9763 55.3565 97.9763 54.1445 97.9763L53.8335 97.9767C49.8697 98.0024 46.0085 99.2567 42.7682 101.571L42.5622 101.72L32.419 109.064C28.9418 111.581 24.3726 107.945 25.9596 103.924C27.0837 101.075 25.0139 97.9763 21.987 97.9763H19.6491C11.5561 97.9763 4.99548 91.3262 4.99548 83.1229V66.4711C4.99548 55.4432 4.99548 49.9293 7.11278 45.7172C8.97521 42.0121 11.947 38.9998 15.6022 37.112C19.7577 34.9658 25.1974 34.9658 36.077 34.9658H43.8473C54.7269 34.9658 60.1667 34.9658 64.3221 37.112C67.9773 38.9998 70.9491 42.0121 72.8115 45.7172ZM24.9764 74.9277C27.7352 74.9277 29.9717 72.6913 29.9717 69.9325C29.9717 67.1737 27.7352 64.9373 24.9764 64.9373C22.2176 64.9373 19.9812 67.1737 19.9812 69.9325C19.9812 72.6913 22.2176 74.9277 24.9764 74.9277ZM44.9574 69.9325C44.9574 72.6913 42.721 74.9277 39.9622 74.9277C37.2034 74.9277 34.9669 72.6913 34.9669 69.9325C34.9669 67.1737 37.2034 64.9373 39.9622 64.9373C42.721 64.9373 44.9574 67.1737 44.9574 69.9325ZM54.9479 74.9277C57.7067 74.9277 59.9431 72.6913 59.9431 69.9325C59.9431 67.1737 57.7067 64.9373 54.9479 64.9373C52.1891 64.9373 49.9526 67.1737 49.9526 69.9325C49.9526 72.6913 52.1891 74.9277 54.9479 74.9277Z" fill="#403377"/>
</svg>
