<svg width="25" height="18" viewBox="0 0 25 18" fill="#9B6C11" xmlns="http://www.w3.org/2000/svg">
<path d="M25 14.5573H5.81859C5.44135 14.5573 5.13446 14.2872 5.13446 13.9552C5.13446 13.6233 5.44135 13.3532 5.81859 13.3532H6.643H7.23573H22.2621L24.8204 3.44815H5.60775L4.71713 0H0V1.30698H3.53163L6.30541 12.0462H5.81854C4.6224 12.0462 3.64926 12.9025 3.64926 13.9551C3.64926 15.0078 4.6224 15.8641 5.81854 15.8641H6.34989C6.32084 15.98 6.30502 16.1001 6.30502 16.2235C6.30502 17.1423 7.15443 17.8898 8.19857 17.8898C9.24271 17.8898 10.0921 17.1423 10.0921 16.2235C10.0921 16.1001 10.0763 15.98 10.0472 15.8641H18.4122C18.3831 15.98 18.3673 16.1001 18.3673 16.2235C18.3673 17.1423 19.2167 17.8898 20.2608 17.8898C21.3049 17.8898 22.1544 17.1423 22.1544 16.2235C22.1544 16.1001 22.1386 15.98 22.1095 15.8641H24.9999L25 14.5573ZM13.7099 12.0462H11.5071L11.3058 10.4871H13.7099V12.0462ZM13.71 9.18017H11.137L10.9357 7.62109H13.71V9.18017ZM19.8343 4.75508H22.9598L22.5571 6.31416H19.633L19.8343 4.75508ZM19.4642 7.62114H22.2196L21.8169 9.18021H19.2629L19.4642 7.62114ZM19.0941 10.4871H21.4793L21.0766 12.0462H18.8927L19.0941 10.4871ZM15.1951 4.75508H18.3396L18.1382 6.31416H15.1952L15.1951 4.75508ZM15.1951 7.62114H17.9694L17.7681 9.18021H15.1951V7.62114ZM15.1951 10.4871H17.5993L17.398 12.0462H15.1951V10.4871ZM13.71 4.75508V6.31416H10.7669L10.5656 4.75508H13.71ZM10.0124 12.0462H7.8285L7.74964 11.741L7.42582 10.4871H9.81106L10.0124 12.0462ZM9.64227 9.18017H7.08827L6.68558 7.62109H9.44095L9.64227 9.18017ZM5.9453 4.75508H9.07078L9.2721 6.31416H6.34799L5.9453 4.75508ZM8.19857 16.5829C7.97342 16.5829 7.79017 16.4218 7.79017 16.2236C7.79017 16.0255 7.97332 15.8642 8.19857 15.8642C8.42376 15.8642 8.60697 16.0254 8.60697 16.2236C8.60697 16.4217 8.42371 16.5829 8.19857 16.5829ZM20.2609 16.5829C20.0357 16.5829 19.8525 16.4218 19.8525 16.2236C19.8525 16.0255 20.0357 15.8642 20.2609 15.8642C20.4861 15.8642 20.6693 16.0254 20.6693 16.2236C20.6692 16.4217 20.4861 16.5829 20.2609 16.5829Z" fill="black"/>
</svg>
