<svg width="26" height="34" viewBox="0 0 26 34" fill="none" xmlns="http://www.w3.org/2000/svg">
<path d="M18.5368 12.887C18.5368 13.635 19.1432 14.2413 19.8911 14.2413C20.6391 14.2413 21.2454 13.635 21.2454 12.887C21.2454 8.15002 17.4053 4.30992 12.6683 4.30992C11.9203 4.30992 11.314 4.91625 11.314 5.6642C11.314 6.41215 11.9203 7.01848 12.6683 7.01848C15.9094 7.01848 18.5368 9.64592 18.5368 12.887Z" fill="#403377"/>
<path fill-rule="evenodd" clip-rule="evenodd" d="M0.0283203 12.887C0.0283203 9.5261 0.0283203 7.84563 0.470209 6.48564C1.36329 3.73701 3.51826 1.58204 6.26689 0.688959C7.62688 0.24707 9.30735 0.24707 12.6683 0.24707C16.0292 0.24707 17.7097 0.24707 19.0697 0.688959C21.8183 1.58204 23.9733 3.73701 24.8664 6.48564C25.3082 7.84563 25.3082 9.5261 25.3082 12.887V26.2265C25.3082 29.6882 25.3082 31.4191 24.6908 32.3345C23.9364 33.4528 22.6217 34.0575 21.2818 33.9024C20.1849 33.7755 18.8707 32.6491 16.2424 30.3962C15.0854 29.4045 14.5069 28.9086 13.8715 28.6841C13.0929 28.409 12.2436 28.409 11.4651 28.6841C10.8297 28.9086 10.2512 29.4045 9.09423 30.3962C6.46584 32.6491 5.15166 33.7755 4.05481 33.9024C2.71482 34.0575 1.40013 33.4528 0.645792 32.3345C0.0283203 31.4191 0.0283203 29.6882 0.0283203 26.2264V12.887ZM22.2904 7.32263C22.5663 8.17178 22.5997 9.31529 22.5997 12.887V26.2265C22.5997 28.004 22.5977 29.1747 22.5309 30.0227C22.4874 30.5746 22.4249 30.8092 22.4075 30.8718C22.2279 31.1011 21.9482 31.2298 21.6572 31.2169C21.5983 31.1894 21.3795 31.0842 20.9321 30.758C20.2448 30.2568 19.3547 29.4965 18.005 28.3397C17.9272 28.273 17.849 28.2056 17.7705 28.1379C16.8642 27.3567 15.9052 26.5301 14.7738 26.1303C13.4114 25.6489 11.9252 25.6489 10.5627 26.1303C9.43133 26.5301 8.47296 27.3562 7.56667 28.1374C7.54698 28.1543 7.52731 28.1713 7.50767 28.1882C7.44875 28.239 7.39005 28.2895 7.33152 28.3397C5.98189 29.4965 5.09173 30.2568 4.40442 30.758C3.95706 31.0842 3.7383 31.1894 3.67939 31.2169C3.3884 31.2298 3.10871 31.1011 2.92909 30.8718C2.91162 30.8092 2.84918 30.5746 2.8057 30.0227C2.73891 29.1747 2.73688 28.004 2.73688 26.2264V12.887C2.73688 9.31529 2.7703 8.17178 3.04621 7.32263C3.67136 5.39859 5.17984 3.89011 7.10388 3.26496C7.95303 2.98905 9.09653 2.95563 12.6683 2.95563C16.24 2.95563 17.3835 2.98905 18.2327 3.26496C20.1567 3.89011 21.6652 5.39859 22.2904 7.32263Z" fill="#403377"/>
</svg>
