<svg width="24" height="31" viewBox="0 0 24 31" fill="none" xmlns="http://www.w3.org/2000/svg">
<path d="M16.7683 23.1656L16.7682 23.1654C16.6889 23.213 16.605 23.2394 16.5177 23.2394C16.4298 23.2394 16.3382 23.2144 16.2619 23.1564L15.0334 22.2543L13.8047 23.1344L13.8045 23.1345C13.6536 23.2423 13.4509 23.2423 13.3 23.1345C13.1486 23.0264 13.0838 22.8322 13.1399 22.6549C13.14 22.6548 13.14 22.6547 13.14 22.6547L13.6102 21.1492L12.3947 20.2196C12.2486 20.108 12.1874 19.9177 12.2477 19.7403C12.3045 19.5666 12.4683 19.4473 12.6522 19.443L12.6531 19.443L12.6531 19.443L14.1622 19.4208L14.654 17.9649L14.6541 17.9646C14.7139 17.7896 14.8774 17.6675 15.0685 17.6713C15.2561 17.6718 15.419 17.7979 15.4746 17.9733M16.7683 23.1656L15.3793 18.0036M16.7683 23.1656L16.7733 23.1622C16.9269 23.0569 16.9903 22.8621 16.9389 22.6866L16.9387 22.6861L16.4872 21.1764M16.7683 23.1656L16.4872 21.1764M15.4746 17.9733L15.3793 18.0036M15.4746 17.9733L15.4746 17.9732L15.3793 18.0036M15.4746 17.9733L15.9439 19.4474M15.3793 18.0036L15.8705 19.5463M15.9439 19.4474L15.8719 19.4463L15.8705 19.5463M15.9439 19.4474L17.4484 19.4695L17.4492 19.4696V19.4696C17.6338 19.4739 17.7935 19.5904 17.8535 19.7661L17.854 19.7675L17.854 19.7675C17.9098 19.9392 17.8545 20.1332 17.7068 20.2462L17.7067 20.2462L16.4872 21.1764M15.9439 19.4474L15.9658 19.516L15.8705 19.5463M15.8705 19.5463L16.4872 21.1764M15.7332 21.6955L15.5656 21.1311C15.5656 21.131 15.5656 21.131 15.5656 21.131L15.5655 21.1308L15.6614 21.1023C15.6216 20.9696 15.668 20.827 15.7775 20.744L15.7332 21.6955ZM15.7332 21.6955L15.2898 21.3706C15.2136 21.3126 15.122 21.2876 15.0341 21.2876C14.9486 21.2876 14.861 21.313 14.7862 21.3587L14.7861 21.3585L14.7801 21.3627L14.3457 21.6735L14.5222 21.1089L14.5222 21.1089L14.5226 21.1078C14.5745 20.9349 14.5136 20.75 14.3725 20.6389L14.3725 20.6389L14.3714 20.6381L13.9064 20.2822L14.4748 20.2733L14.4748 20.2734L14.4756 20.2733C14.6569 20.269 14.8162 20.1525 14.8763 19.9808L14.8763 19.9808L14.8766 19.9799L15.0444 19.485M15.7332 21.6955L15.0444 19.485M15.0444 19.485L15.2076 19.9979L15.0444 19.485ZM15.7172 20.6643C15.7171 20.6643 15.717 20.6644 15.717 20.6644L15.2077 19.998C15.264 20.1755 15.4281 20.2956 15.6126 20.2999L15.6134 20.2999L16.1818 20.3087L15.7172 20.6643Z" fill="black" stroke="black" stroke-width="0.2"/>
<path d="M13.5726 13.7286L13.5726 13.7286C16.4453 13.2259 19.3369 14.5886 20.7727 17.1171C21.4959 18.3855 21.8142 19.792 21.6869 21.1828C21.5651 22.5248 21.0258 23.7788 20.1256 24.8249L21.8489 26.816L21.8491 26.8162C21.9262 26.9059 21.9658 27.0219 21.9529 27.1437L21.9529 27.1437C21.9402 27.2627 21.8815 27.3713 21.7833 27.4432C21.7831 27.4434 21.7829 27.4436 21.7826 27.4437L19.3437 29.2825C19.2854 29.3286 19.2229 29.3532 19.1604 29.3647C19.018 29.391 18.8652 29.3397 18.7626 29.2289L18.7617 29.228L16.793 27.0486L15.2055 27.3416L14.1314 30.0828L14.1311 30.0836C14.0742 30.2251 13.9516 30.3226 13.8073 30.3492C13.7419 30.3613 13.6715 30.3565 13.608 30.3382L10.6722 29.4907C10.6719 29.4906 10.6716 29.4905 10.6713 29.4904C10.5541 29.4584 10.4605 29.3781 10.4063 29.2717C10.3508 29.1651 10.3462 29.0391 10.3861 28.9282L10.3864 28.9275L11.2986 26.4536C10.0514 25.7804 9.08564 24.78 8.49682 23.538L13.5726 13.7286ZM13.5726 13.7286L13.5717 13.7288M13.5726 13.7286L13.5717 13.7288M13.5717 13.7288C12.1518 13.9908 10.8691 14.6656 9.86069 15.6765L9.86064 15.6766M13.5717 13.7288L9.86064 15.6766M9.86064 15.6766C8.84954 16.6915 8.19472 17.9697 7.96295 19.3683M9.86064 15.6766L7.96295 19.3683M7.96295 19.3683C7.70904 20.8269 7.89233 22.2685 8.49679 23.5379L7.96295 19.3683ZM12.2457 26.3873L12.1519 26.3527L12.2457 26.3873L12.6859 25.1945C13.3877 25.4943 14.16 25.6431 14.9593 25.6087L13.4702 29.4014L11.3582 28.7917L12.2457 26.3873ZM19.1369 28.3555L16.4179 25.3433C17.1642 25.0954 17.8361 24.685 18.3937 24.1418L19.2101 25.0826L19.2105 25.0845L19.2283 25.1051L20.8954 27.0314L19.1369 28.3555ZM11.9161 24.7891L11.6045 25.6351C9.4636 24.4177 8.37383 22.0683 8.8185 19.5134L8.81864 19.5126C9.22955 17.0289 11.2033 15.0442 13.728 14.5781C16.2361 14.1387 18.7668 15.3311 20.0251 17.5447L20.0252 17.5448C21.2822 19.7485 21.0861 22.2954 19.5542 24.1641L18.9632 23.4817L18.9734 23.4679L19.0315 23.3898L19.0315 23.3898L19.0333 23.3872C19.8196 22.2581 20.1144 20.8889 19.8651 19.5381C19.3487 16.7394 16.6422 14.8862 13.8305 15.405C11.0062 15.9262 9.12582 18.6254 9.64237 21.4246C9.90798 22.8639 10.7629 24.0519 11.9161 24.7891ZM10.4911 21.2645C10.0612 18.935 11.6279 16.6862 13.9866 16.251C16.3315 15.8182 18.5857 17.3646 19.0151 19.6916C19.4426 22.0081 17.8838 24.2452 15.5416 24.6775C13.1824 25.1128 10.9185 23.5806 10.4911 21.2645ZM16.1132 26.2926L15.5749 26.3919L15.7647 25.9065L16.1132 26.2926Z" fill="black" stroke="black" stroke-width="0.2"/>
<mask id="path-3-outside-1_113_4017" maskUnits="userSpaceOnUse" x="0" y="0" width="13" height="28" fill="black">
<rect fill="white" width="13" height="28"/>
<path fill-rule="evenodd" clip-rule="evenodd" d="M8.37145 4.46849L8.37313 6.84788C9.16756 7.42889 11.8404 9.52413 11.8404 11.4068V14.0085V14.7681C11.5421 14.8264 11.2524 14.9098 10.9732 15.0161V14.4421H6.20335V24.4153H8.91363C9.22208 24.7454 9.56833 25.037 9.94511 25.2825H5.76975C5.53011 25.2825 5.33615 25.0886 5.33615 24.8489V14.0085C5.33615 13.7689 5.53006 13.5749 5.76975 13.5749H10.9732V11.4068C10.9732 10.0183 8.60438 8.0628 7.6914 7.42635C7.57539 7.34546 7.50593 7.21247 7.50593 7.07106L7.50466 4.90255H5.33615V7.07065C5.33615 7.21207 5.26669 7.34505 5.15068 7.42635C4.23729 8.06407 1.8672 10.0234 1.8672 11.4068V13.5749H3.16805C3.40769 13.5749 3.60165 13.7688 3.60165 14.0085V24.8489C3.60165 25.0885 3.40774 25.2825 3.16805 25.2825H1.8672V26.1497H10.9732V25.8061C11.2524 25.9123 11.5421 25.9957 11.8404 26.0541V26.5833C11.8404 26.823 11.6465 27.0169 11.4068 27.0169H1.4336C1.19396 27.0169 1 26.823 1 26.5833V24.8489V14.0085V11.4068C1 9.52707 3.67411 7.42971 4.46895 6.84788V4.4689V1.4336C4.46895 1.19396 4.66286 1 4.90255 1H7.93785C8.17749 1 8.37145 1.19391 8.37145 1.4336V4.46849ZM7.50425 1.86725H5.33615V4.03535H7.50425V1.86725ZM2.73445 14.4421H1.8672V24.4153H2.73445V14.4421Z"/>
</mask>
<path fill-rule="evenodd" clip-rule="evenodd" d="M8.37145 4.46849L8.37313 6.84788C9.16756 7.42889 11.8404 9.52413 11.8404 11.4068V14.0085V14.7681C11.5421 14.8264 11.2524 14.9098 10.9732 15.0161V14.4421H6.20335V24.4153H8.91363C9.22208 24.7454 9.56833 25.037 9.94511 25.2825H5.76975C5.53011 25.2825 5.33615 25.0886 5.33615 24.8489V14.0085C5.33615 13.7689 5.53006 13.5749 5.76975 13.5749H10.9732V11.4068C10.9732 10.0183 8.60438 8.0628 7.6914 7.42635C7.57539 7.34546 7.50593 7.21247 7.50593 7.07106L7.50466 4.90255H5.33615V7.07065C5.33615 7.21207 5.26669 7.34505 5.15068 7.42635C4.23729 8.06407 1.8672 10.0234 1.8672 11.4068V13.5749H3.16805C3.40769 13.5749 3.60165 13.7688 3.60165 14.0085V24.8489C3.60165 25.0885 3.40774 25.2825 3.16805 25.2825H1.8672V26.1497H10.9732V25.8061C11.2524 25.9123 11.5421 25.9957 11.8404 26.0541V26.5833C11.8404 26.823 11.6465 27.0169 11.4068 27.0169H1.4336C1.19396 27.0169 1 26.823 1 26.5833V24.8489V14.0085V11.4068C1 9.52707 3.67411 7.42971 4.46895 6.84788V4.4689V1.4336C4.46895 1.19396 4.66286 1 4.90255 1H7.93785C8.17749 1 8.37145 1.19391 8.37145 1.4336V4.46849ZM7.50425 1.86725H5.33615V4.03535H7.50425V1.86725ZM2.73445 14.4421H1.8672V24.4153H2.73445V14.4421Z" fill="black"/>
<path d="M8.37313 6.84788L8.17313 6.84802L8.1732 6.94944L8.25506 7.00931L8.37313 6.84788ZM8.37145 4.46849H8.17145L8.17145 4.46863L8.37145 4.46849ZM11.8404 14.7681L11.8788 14.9643L12.0404 14.9327V14.7681H11.8404ZM10.9732 15.0161H10.7732V15.3062L11.0443 15.203L10.9732 15.0161ZM10.9732 14.4421H11.1732V14.2421H10.9732V14.4421ZM6.20335 14.4421V14.2421H6.00335V14.4421H6.20335ZM6.20335 24.4153H6.00335V24.6153H6.20335V24.4153ZM8.91363 24.4153L9.05977 24.2788L9.00048 24.2153H8.91363V24.4153ZM9.94511 25.2825V25.4825H10.6184L10.0543 25.1149L9.94511 25.2825ZM10.9732 13.5749V13.7749H11.1732V13.5749H10.9732ZM7.6914 7.42635L7.577 7.5904L7.57703 7.59042L7.6914 7.42635ZM7.50593 7.07106H7.70593V7.07094L7.50593 7.07106ZM7.50466 4.90255L7.70466 4.90243L7.70454 4.70255H7.50466V4.90255ZM5.33615 4.90255V4.70255H5.13615V4.90255H5.33615ZM5.15068 7.42635L5.26517 7.59034L5.26546 7.59013L5.15068 7.42635ZM1.8672 13.5749H1.6672V13.7749H1.8672V13.5749ZM1.8672 25.2825V25.0825H1.6672V25.2825H1.8672ZM1.8672 26.1497H1.6672V26.3498H1.8672V26.1497ZM10.9732 26.1497V26.3498H11.1732V26.1497H10.9732ZM10.9732 25.8061L11.0443 25.6191L10.7732 25.516V25.8061H10.9732ZM11.8404 26.0541H12.0404V25.8895L11.8788 25.8578L11.8404 26.0541ZM4.46895 6.84788L4.58708 7.00926L4.66895 6.94934V6.84788H4.46895ZM5.33615 1.86725V1.66725H5.13615V1.86725H5.33615ZM7.50425 1.86725H7.70425V1.66725H7.50425V1.86725ZM5.33615 4.03535H5.13615V4.23535H5.33615V4.03535ZM7.50425 4.03535V4.23535H7.70425V4.03535H7.50425ZM1.8672 14.4421V14.2421H1.6672V14.4421H1.8672ZM2.73445 14.4421H2.93445V14.2421H2.73445V14.4421ZM1.8672 24.4153H1.6672V24.6153H1.8672V24.4153ZM2.73445 24.4153V24.6153H2.93445V24.4153H2.73445ZM8.57313 6.84774L8.57145 4.46835L8.17145 4.46863L8.17313 6.84802L8.57313 6.84774ZM12.0404 11.4068C12.0404 10.8899 11.8575 10.3717 11.5849 9.8843C11.3117 9.39579 10.9418 8.92643 10.5517 8.50359C9.77145 7.65806 8.89285 6.9802 8.49119 6.68645L8.25506 7.00931C8.64783 7.29657 9.50287 7.95683 10.2577 8.77485C10.635 9.18377 10.983 9.62753 11.2358 10.0795C11.4892 10.5326 11.6404 10.9824 11.6404 11.4068H12.0404ZM12.0404 14.0085V11.4068H11.6404V14.0085H12.0404ZM12.0404 14.7681V14.0085H11.6404V14.7681H12.0404ZM11.0443 15.203C11.313 15.1008 11.5919 15.0205 11.8788 14.9643L11.802 14.5718C11.4924 14.6324 11.1917 14.7189 10.902 14.8292L11.0443 15.203ZM10.7732 14.4421V15.0161H11.1732V14.4421H10.7732ZM6.20335 14.6421H10.9732V14.2421H6.20335V14.6421ZM6.40335 24.4153V14.4421H6.00335V24.4153H6.40335ZM8.91363 24.2153H6.20335V24.6153H8.91363V24.2153ZM10.0543 25.1149C9.69124 24.8784 9.35736 24.5972 9.05977 24.2788L8.7675 24.5518C9.0868 24.8936 9.44542 25.1956 9.83593 25.4501L10.0543 25.1149ZM5.76975 25.4825H9.94511V25.0825H5.76975V25.4825ZM5.13615 24.8489C5.13615 25.1991 5.41967 25.4825 5.76975 25.4825V25.0825C5.64055 25.0825 5.53615 24.9781 5.53615 24.8489H5.13615ZM5.13615 14.0085V24.8489H5.53615V14.0085H5.13615ZM5.76975 13.3749C5.41958 13.3749 5.13615 13.6584 5.13615 14.0085H5.53615C5.53615 13.8793 5.64053 13.7749 5.76975 13.7749V13.3749ZM10.9732 13.3749H5.76975V13.7749H10.9732V13.3749ZM10.7732 11.4068V13.5749H11.1732V11.4068H10.7732ZM7.57703 7.59042C8.02493 7.90266 8.83457 8.54212 9.52978 9.27245C9.87736 9.63759 10.1916 10.0206 10.4179 10.3925C10.6461 10.7677 10.7732 11.1128 10.7732 11.4068H11.1732C11.1732 11.0065 11.0041 10.5866 10.7596 10.1846C10.5132 9.77954 10.1782 9.37352 9.8195 8.99666C9.10209 8.24301 8.27085 7.58649 7.80577 7.26228L7.57703 7.59042ZM7.30593 7.07106C7.30593 7.27794 7.40742 7.47215 7.577 7.5904L7.8058 7.2623C7.74336 7.21876 7.70593 7.14701 7.70593 7.07106H7.30593ZM7.30466 4.90267L7.30593 7.07117L7.70593 7.07094L7.70466 4.90243L7.30466 4.90267ZM5.33615 5.10255H7.50466V4.70255H5.33615V5.10255ZM5.53615 7.07065V4.90255H5.13615V7.07065H5.53615ZM5.26546 7.59013C5.43461 7.47159 5.53615 7.27762 5.53615 7.07065H5.13615C5.13615 7.14652 5.09876 7.21851 5.03589 7.26257L5.26546 7.59013ZM2.0672 11.4068C2.0672 11.1142 2.19422 10.7699 2.4226 10.3949C2.649 10.0233 2.96349 9.64023 3.31129 9.27483C4.00693 8.54396 4.81704 7.90321 5.26517 7.59034L5.03618 7.26237C4.57092 7.58721 3.73929 8.24497 3.02155 8.99905C2.66265 9.37611 2.32752 9.78214 2.08099 10.1869C1.83644 10.5883 1.6672 11.0077 1.6672 11.4068H2.0672ZM2.0672 13.5749V11.4068H1.6672V13.5749H2.0672ZM3.16805 13.3749H1.8672V13.7749H3.16805V13.3749ZM3.80165 14.0085C3.80165 13.6583 3.51813 13.3749 3.16805 13.3749V13.7749C3.29725 13.7749 3.40165 13.8793 3.40165 14.0085H3.80165ZM3.80165 24.8489V14.0085H3.40165V24.8489H3.80165ZM3.16805 25.4825C3.51821 25.4825 3.80165 25.199 3.80165 24.8489H3.40165C3.40165 24.9781 3.29727 25.0825 3.16805 25.0825V25.4825ZM1.8672 25.4825H3.16805V25.0825H1.8672V25.4825ZM2.0672 26.1497V25.2825H1.6672V26.1497H2.0672ZM10.9732 25.9497H1.8672V26.3498H10.9732V25.9497ZM10.7732 25.8061V26.1497H11.1732V25.8061H10.7732ZM11.8788 25.8578C11.5919 25.8016 11.313 25.7214 11.0443 25.6191L10.902 25.993C11.1917 26.1032 11.4924 26.1898 11.802 26.2504L11.8788 25.8578ZM12.0404 26.5833V26.0541H11.6404V26.5833H12.0404ZM11.4068 27.2169C11.757 27.2169 12.0404 26.9334 12.0404 26.5833H11.6404C11.6404 26.7125 11.536 26.8169 11.4068 26.8169V27.2169ZM1.4336 27.2169H11.4068V26.8169H1.4336V27.2169ZM0.8 26.5833C0.8 26.9335 1.08352 27.2169 1.4336 27.2169V26.8169C1.3044 26.8169 1.2 26.7126 1.2 26.5833H0.8ZM0.8 24.8489V26.5833H1.2V24.8489H0.8ZM0.8 14.0085V24.8489H1.2V14.0085H0.8ZM0.8 11.4068V14.0085H1.2V11.4068H0.8ZM4.35082 6.6865C3.94898 6.98064 3.06999 7.65922 2.28944 8.50498C1.89909 8.92795 1.52905 9.39731 1.25573 9.88559C0.983024 10.3728 0.8 10.8906 0.8 11.4068H1.2C1.2 10.9832 1.35124 10.5339 1.60477 10.081C1.85768 9.62914 2.20585 9.18534 2.58338 8.77627C3.3386 7.95796 4.19408 7.29694 4.58708 7.00926L4.35082 6.6865ZM4.26895 4.4689V6.84788H4.66895V4.4689H4.26895ZM4.26895 1.4336V4.4689H4.66895V1.4336H4.26895ZM4.90255 0.8C4.55239 0.8 4.26895 1.08352 4.26895 1.4336H4.66895C4.66895 1.3044 4.77333 1.2 4.90255 1.2V0.8ZM7.93785 0.8H4.90255V1.2H7.93785V0.8ZM8.57145 1.4336C8.57145 1.08344 8.28793 0.8 7.93785 0.8V1.2C8.06705 1.2 8.17145 1.30438 8.17145 1.4336H8.57145ZM8.57145 4.46849V1.4336H8.17145V4.46849H8.57145ZM5.33615 2.06725H7.50425V1.66725H5.33615V2.06725ZM5.53615 4.03535V1.86725H5.13615V4.03535H5.53615ZM7.50425 3.83535H5.33615V4.23535H7.50425V3.83535ZM7.30425 1.86725V4.03535H7.70425V1.86725H7.30425ZM1.8672 14.6421H2.73445V14.2421H1.8672V14.6421ZM2.0672 24.4153V14.4421H1.6672V24.4153H2.0672ZM2.73445 24.2153H1.8672V24.6153H2.73445V24.2153ZM2.53445 14.4421V24.4153H2.93445V14.4421H2.53445Z" fill="black" mask="url(#path-3-outside-1_113_4017)"/>
</svg>
