<svg width="32" height="22" viewBox="0 0 32 22" fill="none" xmlns="http://www.w3.org/2000/svg">
<path d="M23.5016 16.6896L23.5016 16.6896L23.5012 16.69C22.9578 17.2333 22.6533 17.9426 22.6533 18.7033C22.6533 19.4635 22.9514 20.1731 23.5016 20.717L23.502 20.7174C24.0516 21.2544 24.7668 21.5522 25.5267 21.5522C27.0855 21.5522 28.3512 20.2726 28.3512 18.7033C28.3512 17.134 27.0855 15.8543 25.5267 15.8543C24.7671 15.8543 24.0455 16.152 23.5016 16.6896ZM25.5267 20.1305C24.7373 20.1305 24.075 19.4773 24.075 18.7033C24.075 17.9293 24.7373 17.2761 25.5267 17.2761C26.3007 17.2761 26.9294 17.9139 26.9294 18.7033C26.9294 19.4926 26.3007 20.1305 25.5267 20.1305Z" fill="black" stroke="black" stroke-width="0.2"/>
<path d="M28.1409 8.37857L28.1408 8.37841L26.3029 6.72369C26.1733 6.60178 26.002 6.53843 25.8258 6.53843H22.6921C22.3008 6.53843 21.9812 6.85809 21.9812 7.2493V12.2585C21.9812 12.6497 22.3008 12.9693 22.6921 12.9693H27.6646C28.0558 12.9693 28.3754 12.6497 28.3754 12.2585V8.90477C28.3754 8.70525 28.29 8.51345 28.1409 8.37857ZM26.9537 11.5476H23.4029V7.95407H25.5492L26.9537 9.21809V11.5476Z" fill="black" stroke="black" stroke-width="0.2"/>
<path d="M8.58397 16.6896L8.58397 16.6896L8.58355 16.69C8.04024 17.2333 7.73569 17.9426 7.73569 18.7033C7.73569 19.4635 8.03379 20.1731 8.58396 20.717L8.58438 20.7174C9.13399 21.2544 9.84916 21.5522 10.6091 21.5522C12.1679 21.5522 13.4336 20.2726 13.4336 18.7033C13.4336 17.134 12.1679 15.8543 10.6091 15.8543C9.84949 15.8543 9.12789 16.152 8.58397 16.6896ZM10.6091 20.1305C9.81973 20.1305 9.15744 19.4773 9.15744 18.7033C9.15744 17.9293 9.81973 17.2761 10.6091 17.2761C11.383 17.2761 12.0118 17.9139 12.0118 18.7033C12.0118 19.4926 11.383 20.1305 10.6091 20.1305Z" fill="black" stroke="black" stroke-width="0.2"/>
<path d="M6.53456 16.6055H5.40671V15.0806C5.40671 14.6894 5.08704 14.3697 4.69583 14.3697C4.30463 14.3697 3.98496 14.6894 3.98496 15.0806V17.3164C3.98496 17.7076 4.30463 18.0273 4.69583 18.0273H6.53456C6.92577 18.0273 7.24544 17.7076 7.24544 17.3164C7.24544 16.9252 6.92577 16.6055 6.53456 16.6055Z" fill="black" stroke="black" stroke-width="0.2"/>
<path d="M9.73164 13.3763C9.73164 12.985 9.41198 12.6654 9.02077 12.6654H1.61087C1.21966 12.6654 0.9 12.985 0.9 13.3763C0.9 13.7675 1.21966 14.0871 1.61087 14.0871H9.02077C9.41133 14.0871 9.73164 13.7742 9.73164 13.3763Z" fill="black" stroke="black" stroke-width="0.2"/>
<path d="M10.2607 11.3137H10.2602L2.85084 11.271C2.85074 11.271 2.85064 11.271 2.85054 11.271L2.85026 11.271L2.85084 11.171L10.2607 11.3137ZM10.2607 11.3137C10.651 11.3137 10.9706 11.0015 10.9777 10.6108L10.9777 10.6107L10.2607 11.3137ZM2.86363 9.84922V9.84922L10.273 9.89198C10.2731 9.89198 10.2732 9.89198 10.2733 9.89198L10.2735 9.89198L10.273 9.99198L2.86363 9.84922ZM2.86363 9.84922H2.86305M2.86363 9.84922H2.86305M2.86305 9.84922H2.86302M2.86305 9.84922H2.86302M2.86302 9.84922H2.86298M2.86302 9.84922H2.86298M2.86298 9.84922H2.86295M2.86298 9.84922H2.86295M2.86295 9.84922H2.86291M2.86295 9.84922H2.86291M2.86291 9.84922H2.86288M2.86291 9.84922H2.86288M2.86288 9.84922H2.86284M2.86288 9.84922H2.86284M2.86284 9.84922H2.86281M2.86284 9.84922H2.86281M2.86281 9.84922H2.86277M2.86281 9.84922H2.86277M2.86277 9.84922H2.86274M2.86277 9.84922H2.86274M2.86274 9.84922H2.8627M2.86274 9.84922H2.8627M2.8627 9.84922H2.86267M2.8627 9.84922H2.86267M2.86267 9.84922H2.86263M2.86267 9.84922H2.86263M2.86263 9.84922H2.8626M2.86263 9.84922H2.8626M2.8626 9.84922H2.86257M2.8626 9.84922H2.86257M2.86257 9.84922H2.86253M2.86257 9.84922H2.86253M2.86253 9.84922H2.8625M2.86253 9.84922H2.8625M2.8625 9.84922H2.86247M2.8625 9.84922H2.86247M2.86247 9.84922H2.86243M2.86247 9.84922H2.86243M2.86243 9.84922H2.8624M2.86243 9.84922H2.8624M2.8624 9.84922H2.86237M2.8624 9.84922H2.86237M2.86237 9.84922H2.86233M2.86237 9.84922H2.86233M2.86233 9.84922H2.8623M2.86233 9.84922H2.8623M2.8623 9.84922H2.86227M2.8623 9.84922H2.86227M2.86227 9.84922H2.86223M2.86227 9.84922H2.86223M2.86223 9.84922H2.8622M2.86223 9.84922H2.8622M2.8622 9.84922H2.86217M2.8622 9.84922H2.86217M2.86217 9.84922H2.86214M2.86217 9.84922H2.86214M2.86214 9.84922H2.86211M2.86214 9.84922H2.86211M2.86211 9.84922H2.86207M2.86211 9.84922H2.86207M2.86207 9.84922H2.86204M2.86207 9.84922H2.86204M2.86204 9.84922H2.86201M2.86204 9.84922H2.86201M2.86201 9.84922H2.86198M2.86201 9.84922H2.86198M2.86198 9.84922H2.86195M2.86198 9.84922H2.86195M2.86195 9.84922H2.86192M2.86195 9.84922H2.86192M2.86192 9.84922H2.86188M2.86192 9.84922H2.86188M2.86188 9.84922H2.86185M2.86188 9.84922H2.86185M2.86185 9.84922H2.86182M2.86185 9.84922H2.86182M2.86182 9.84922H2.86179M2.86182 9.84922H2.86179M2.86179 9.84922H2.86176M2.86179 9.84922H2.86176M2.86176 9.84922H2.86173M2.86176 9.84922H2.86173M2.86173 9.84922H2.8617M2.86173 9.84922H2.8617M2.8617 9.84922H2.86167M2.8617 9.84922H2.86167M2.86167 9.84922H2.86164M2.86167 9.84922H2.86164M2.86164 9.84922H2.86161M2.86164 9.84922H2.86161M2.86161 9.84922H2.86158M2.86161 9.84922H2.86158M2.86158 9.84922H2.86155M2.86158 9.84922H2.86155M2.86155 9.84922H2.86152M2.86155 9.84922H2.86152M2.86152 9.84922H2.86149M2.86152 9.84922H2.86149M2.86149 9.84922H2.86146M2.86149 9.84922H2.86146M2.86146 9.84922H2.86143M2.86146 9.84922H2.86143M2.86143 9.84922H2.8614M2.86143 9.84922H2.8614M2.8614 9.84922H2.86138M2.8614 9.84922H2.86138M2.86138 9.84922H2.86135M2.86138 9.84922H2.86135M2.86135 9.84922H2.86132M2.86135 9.84922H2.86132M2.86132 9.84922H2.86129M2.86132 9.84922H2.86129M2.86129 9.84922H2.86126M2.86129 9.84922H2.86126M2.86126 9.84922H2.86123M2.86126 9.84922H2.86123M2.86123 9.84922H2.8612M2.86123 9.84922H2.8612M2.8612 9.84922H2.86118M2.8612 9.84922H2.86118M2.86118 9.84922H2.86115M2.86118 9.84922H2.86115M2.86115 9.84922H2.86112M2.86115 9.84922H2.86112M2.86112 9.84922H2.86109M2.86112 9.84922H2.86109M2.86109 9.84922H2.86107M2.86109 9.84922H2.86107M2.86107 9.84922H2.86104M2.86107 9.84922H2.86104M2.86104 9.84922H2.86101M2.86104 9.84922H2.86101M2.86101 9.84922H2.86098M2.86101 9.84922H2.86098M2.86098 9.84922H2.86096M2.86098 9.84922H2.86096M2.86096 9.84922H2.86093M2.86096 9.84922H2.86093M2.86093 9.84922H2.8609M2.86093 9.84922H2.8609M2.8609 9.84922H2.86088M2.8609 9.84922H2.86088M2.86088 9.84922H2.86085M2.86088 9.84922H2.86085M2.86085 9.84922H2.86082M2.86085 9.84922H2.86082M2.86082 9.84922H2.8608M2.86082 9.84922H2.8608M2.8608 9.84922H2.86077M2.8608 9.84922H2.86077M2.86077 9.84922H2.86074M2.86077 9.84922H2.86074M2.86074 9.84922H2.86072M2.86074 9.84922H2.86072M2.86072 9.84922H2.86069M2.86072 9.84922H2.86069M2.86069 9.84922H2.86067M2.86069 9.84922H2.86067M2.86067 9.84922H2.86064M2.86067 9.84922H2.86064M2.86064 9.84922H2.86061M2.86064 9.84922H2.86061M2.86061 9.84922H2.86059M2.86061 9.84922H2.86059M2.86059 9.84922H2.86056M2.86059 9.84922H2.86056M2.86056 9.84922H2.86054M2.86056 9.84922H2.86054M2.86054 9.84922H2.86051M2.86054 9.84922H2.86051M2.86051 9.84922H2.86049M2.86051 9.84922H2.86049M2.86049 9.84922H2.86046M2.86049 9.84922H2.86046M2.86046 9.84922H2.86044M2.86046 9.84922H2.86044M2.86044 9.84922H2.86041M2.86044 9.84922H2.86041M2.86041 9.84922H2.86039M2.86041 9.84922H2.86039M2.86039 9.84922H2.86037M2.86039 9.84922H2.86037M2.86037 9.84922H2.86034M2.86037 9.84922H2.86034M2.86034 9.84922H2.86032M2.86034 9.84922H2.86032M2.86032 9.84922H2.86029M2.86032 9.84922H2.86029M2.86029 9.84922H2.86027M2.86029 9.84922H2.86027M2.86027 9.84922H2.86025M2.86027 9.84922H2.86025M2.86025 9.84922H2.86022M2.86025 9.84922H2.86022M2.86022 9.84922H2.8602M2.86022 9.84922H2.8602M2.8602 9.84922H2.86017M2.8602 9.84922H2.86017M2.86017 9.84922H2.86015M2.86017 9.84922H2.86015M2.86015 9.84922H2.86013M2.86015 9.84922H2.86013M2.86013 9.84922H2.86011M2.86013 9.84922H2.86011M2.86011 9.84922H2.86008M2.86011 9.84922H2.86008M2.86008 9.84922H2.86006M2.86008 9.84922H2.86006M2.86006 9.84922H2.86004M2.86006 9.84922H2.86004M2.86004 9.84922H2.86001M2.86004 9.84922H2.86001M2.86001 9.84922H2.85999M2.86001 9.84922H2.85999M2.85999 9.84922H2.85997M2.85999 9.84922H2.85997M2.85997 9.84922H2.85995M2.85997 9.84922H2.85995M2.85995 9.84922H2.85992M2.85995 9.84922H2.85992M2.85992 9.84922H2.8599M2.85992 9.84922H2.8599M2.8599 9.84922H2.85988M2.8599 9.84922H2.85988M2.85988 9.84922H2.85986M2.85988 9.84922H2.85986M2.85986 9.84922H2.85984M2.85986 9.84922H2.85984M2.85984 9.84922H2.85981M2.85984 9.84922H2.85981M2.85981 9.84922H2.85979M2.85981 9.84922H2.85979M2.85979 9.84922H2.85977M2.85979 9.84922H2.85977M2.85977 9.84922H2.85975M2.85977 9.84922H2.85975M2.85975 9.84922H2.85973M2.85975 9.84922H2.85973M2.85973 9.84922H2.85971M2.85973 9.84922H2.85971M2.85971 9.84922H2.85969M2.85971 9.84922H2.85969M2.85969 9.84922H2.85967M2.85969 9.84922H2.85967M2.85967 9.84922H2.85965M2.85967 9.84922H2.85965M2.85965 9.84922H2.85962M2.85965 9.84922H2.85962M2.85962 9.84922H2.8596M2.85962 9.84922H2.8596M2.8596 9.84922H2.85958M2.8596 9.84922H2.85958M2.85958 9.84922H2.85956M2.85958 9.84922H2.85956M2.85956 9.84922H2.85954M2.85956 9.84922H2.85954M2.85954 9.84922H2.85952M2.85954 9.84922H2.85952M2.85952 9.84922H2.8595M2.85952 9.84922H2.8595M2.8595 9.84922H2.85948M2.8595 9.84922H2.85948M2.85948 9.84922H2.85946M2.85948 9.84922H2.85946M2.85946 9.84922H2.85944M2.85946 9.84922H2.85944M2.85944 9.84922H2.85942M2.85944 9.84922H2.85942M2.85942 9.84922H2.8594M2.85942 9.84922H2.8594M2.8594 9.84922H2.85938M2.8594 9.84922H2.85938M2.85938 9.84922H2.85936M2.85938 9.84922H2.85936M2.85936 9.84922H2.85935M2.85936 9.84922H2.85935M2.85935 9.84922H2.85933M2.85935 9.84922H2.85933M2.85933 9.84922H2.85931M2.85933 9.84922H2.85931M2.85931 9.84922H2.85929M2.85931 9.84922H2.85929M2.85929 9.84922H2.85927M2.85929 9.84922H2.85927M2.85927 9.84922H2.85925M2.85927 9.84922H2.85925M2.85925 9.84922H2.85923M2.85925 9.84922H2.85923M2.85923 9.84922H2.85921M2.85923 9.84922H2.85921M2.85921 9.84922H2.85919M2.85921 9.84922H2.85919M2.85919 9.84922H2.85918M2.85919 9.84922H2.85918M2.85918 9.84922H2.85916M2.85918 9.84922H2.85916M2.85916 9.84922H2.85914M2.85916 9.84922H2.85914M2.85914 9.84922H2.85912M2.85914 9.84922H2.85912M2.85912 9.84922H2.8591M2.85912 9.84922H2.8591M2.8591 9.84922H2.85909M2.8591 9.84922H2.85909M2.85909 9.84922H2.85907M2.85909 9.84922H2.85907M2.85907 9.84922H2.85905M2.85907 9.84922H2.85905M2.85905 9.84922H2.85903M2.85905 9.84922H2.85903M2.85903 9.84922H2.85902M2.85903 9.84922H2.85902M2.85902 9.84922H2.859M2.85902 9.84922H2.859M2.859 9.84922H2.85898M2.859 9.84922H2.85898M2.85898 9.84922H2.85896M2.85898 9.84922H2.85896M2.85896 9.84922H2.85895M2.85896 9.84922H2.85895M2.85895 9.84922H2.85893M2.85895 9.84922H2.85893M2.85893 9.84922H2.85891M2.85893 9.84922H2.85891M2.85891 9.84922H2.8589M2.85891 9.84922H2.8589M2.8589 9.84922H2.85888M2.8589 9.84922H2.85888M2.85888 9.84922H2.85886M2.85888 9.84922H2.85886M2.85886 9.84922H2.85885M2.85886 9.84922H2.85885M2.85885 9.84922H2.85883M2.85885 9.84922H2.85883M2.85883 9.84922H2.85881M2.85883 9.84922H2.85881M2.85881 9.84922H2.8588M2.85881 9.84922H2.8588M2.8588 9.84922H2.85878M2.8588 9.84922H2.85878M2.85878 9.84922H2.85877M2.85878 9.84922H2.85877M2.85877 9.84922H2.85875M2.85877 9.84922H2.85875M2.85875 9.84922H2.85873M2.85875 9.84922H2.85873M2.85873 9.84922H2.85872M2.85873 9.84922H2.85872M2.85872 9.84922H2.8587M2.85872 9.84922H2.8587M2.8587 9.84922H2.85869M2.8587 9.84922H2.85869M2.85869 9.84922H2.85867M2.85869 9.84922H2.85867M2.85867 9.84922H2.85866M2.85867 9.84922H2.85866M2.85866 9.84922H2.85864M2.85866 9.84922H2.85864M2.85864 9.84922H2.85863M2.85864 9.84922H2.85863M2.85863 9.84922H2.85861M2.85863 9.84922H2.85861M2.85861 9.84922H2.8586M2.85861 9.84922H2.8586M2.8586 9.84922H2.85858M2.8586 9.84922H2.85858M2.85858 9.84922H2.85857M2.85858 9.84922H2.85857M2.85857 9.84922H2.85855M2.85857 9.84922H2.85855M2.85855 9.84922H2.85854M2.85855 9.84922H2.85854M2.85854 9.84922H2.85852M2.85854 9.84922H2.85852M2.85852 9.84922H2.85851M2.85852 9.84922H2.85851M2.85851 9.84922H2.85849M2.85851 9.84922H2.85849M2.85849 9.84922H2.85848M2.85849 9.84922H2.85848M2.85848 9.84922H2.85846M2.85848 9.84922H2.85846M2.85846 9.84922H2.85845M2.85846 9.84922H2.85845M2.85845 9.84922H2.85844M2.85845 9.84922H2.85844M2.85844 9.84922H2.85842M2.85844 9.84922H2.85842M2.85842 9.84922H2.85841M2.85842 9.84922H2.85841M2.85841 9.84922H2.8584M2.85841 9.84922H2.8584M2.8584 9.84922H2.85838M2.8584 9.84922H2.85838M2.85838 9.84922H2.85837M2.85838 9.84922H2.85837M2.85837 9.84922H2.85835M2.85837 9.84922H2.85835M2.85835 9.84922H2.85834M2.85835 9.84922H2.85834M2.85834 9.84922H2.85833M2.85834 9.84922H2.85833M2.85833 9.84922H2.85831M2.85833 9.84922H2.85831M2.85831 9.84922H2.8583M2.85831 9.84922H2.8583M2.8583 9.84922H2.85829M2.8583 9.84922H2.85829M2.85829 9.84922H2.85827M2.85829 9.84922H2.85827M2.85827 9.84922H2.85826M2.85827 9.84922H2.85826M2.85826 9.84922H2.85825M2.85826 9.84922H2.85825M2.85825 9.84922H2.85824M2.85825 9.84922H2.85824M2.85824 9.84922H2.85822M2.85824 9.84922H2.85822M2.85822 9.84922H2.85821M2.85822 9.84922H2.85821M2.85821 9.84922H2.8582M2.85821 9.84922H2.8582M2.8582 9.84922H2.85819M2.8582 9.84922H2.85819M2.85819 9.84922H2.85817M2.85819 9.84922H2.85817M2.85817 9.84922H2.85816M2.85817 9.84922H2.85816M2.85816 9.84922H2.85815M2.85816 9.84922H2.85815M2.85815 9.84922H2.85814M2.85815 9.84922H2.85814M2.85814 9.84922H2.85813M2.85814 9.84922H2.85813M2.85813 9.84922H2.85811M2.85813 9.84922H2.85811M2.85811 9.84922H2.8581M2.85811 9.84922H2.8581M2.8581 9.84922H2.85809M2.8581 9.84922H2.85809M2.85809 9.84922H2.85808M2.85809 9.84922H2.85808M2.85808 9.84922H2.85807M2.85808 9.84922H2.85807M2.85807 9.84922H2.85806M2.85807 9.84922H2.85806M2.85806 9.84922H2.85804M2.85806 9.84922H2.85804M2.85804 9.84922H2.85803M2.85804 9.84922H2.85803M2.85803 9.84922H2.85802M2.85803 9.84922H2.85802M2.85802 9.84922H2.85801M2.85802 9.84922H2.85801M2.85801 9.84922H2.858M2.85801 9.84922H2.858M2.858 9.84922H2.85799M2.858 9.84922H2.85799M2.85799 9.84922H2.85798M2.85799 9.84922H2.85798M2.85798 9.84922H2.85797M2.85798 9.84922H2.85797M2.85797 9.84922H2.85796M2.85797 9.84922H2.85796M2.85796 9.84922H2.85794M2.85796 9.84922H2.85794M2.85794 9.84922H2.85793M2.85794 9.84922H2.85793M2.85793 9.84922H2.85792M2.85793 9.84922H2.85792M2.85792 9.84922H2.85791M2.85792 9.84922H2.85791M2.85791 9.84922H2.8579M2.85791 9.84922H2.8579M2.8579 9.84922H2.85789M2.8579 9.84922H2.85789M2.85789 9.84922H2.85788M2.85789 9.84922H2.85788M2.85788 9.84922H2.85787M2.85788 9.84922H2.85787M2.85787 9.84922H2.85786M2.85787 9.84922H2.85786M2.85786 9.84922H2.85785M2.85786 9.84922H2.85785M2.85785 9.84922H2.85784M2.85785 9.84922H2.85784M2.85784 9.84922H2.85783M2.85784 9.84922H2.85783M2.85783 9.84922H2.85782M2.85783 9.84922H2.85782M2.85782 9.84922H2.85781M2.85782 9.84922H2.85781M2.85781 9.84922H2.8578M2.85781 9.84922H2.8578M2.8578 9.84922H2.85779M2.8578 9.84922H2.85779M2.85779 9.84922H2.85778M2.85779 9.84922H2.85778M2.85778 9.84922H2.85777M2.85778 9.84922H2.85777M2.85777 9.84922H2.85776M2.85777 9.84922H2.85776M2.85776 9.84922H2.85775M2.85776 9.84922H2.85775M2.85775 9.84922H2.85775M2.85775 9.84922H2.85775M2.85775 9.84922H2.85774M2.85775 9.84922H2.85774M2.85774 9.84922H2.85773M2.85774 9.84922H2.85773M2.85773 9.84922H2.85772M2.85773 9.84922H2.85772M2.85772 9.84922H2.85771M2.85772 9.84922H2.85771M2.85771 9.84922H2.8577M2.85771 9.84922H2.8577M2.8577 9.84922H2.85769M2.8577 9.84922H2.85769M2.85769 9.84922H2.85768M2.85769 9.84922H2.85768M2.85768 9.84922H2.85767M2.85768 9.84922H2.85767M2.85767 9.84922H2.85766M2.85767 9.84922H2.85766M2.85766 9.84922H2.85766M2.85766 9.84922H2.85766M2.85766 9.84922H2.85765M2.85766 9.84922H2.85765M2.85765 9.84922H2.85764M2.85765 9.84922H2.85764M2.85764 9.84922H2.85763M2.85764 9.84922H2.85763M2.85763 9.84922H2.85762M2.85763 9.84922H2.85762M2.85762 9.84922H2.85761M2.85762 9.84922H2.85761M2.85761 9.84922H2.85761M2.85761 9.84922H2.85761M2.85761 9.84922H2.8576M2.85761 9.84922H2.8576M2.8576 9.84922H2.85759M2.8576 9.84922H2.85759M2.85759 9.84922H2.85758M2.85759 9.84922H2.85758M2.85758 9.84922H2.85757M2.85758 9.84922H2.85757M2.85757 9.84922H2.85757M2.85757 9.84922H2.85757M2.85757 9.84922H2.85756M2.85757 9.84922H2.85756M2.85756 9.84922H2.85755M2.85756 9.84922H2.85755M2.85755 9.84922H2.85754M2.85755 9.84922H2.85754M2.85754 9.84922H2.85754M2.85754 9.84922H2.85754M2.85754 9.84922H2.85753M2.85754 9.84922H2.85753M2.85753 9.84922H2.85752M2.85753 9.84922H2.85752M2.85752 9.84922H2.85751M2.85752 9.84922H2.85751M2.85751 9.84922H2.85751M2.85751 9.84922H2.85751M2.85751 9.84922H2.8575M2.85751 9.84922H2.8575M2.8575 9.84922H2.85749M2.8575 9.84922H2.85749M2.85749 9.84922H2.85748M2.85749 9.84922H2.85748M2.85748 9.84922H2.85748M2.85748 9.84922H2.85748M2.85748 9.84922H2.85747M2.85748 9.84922H2.85747M2.85747 9.84922H2.85746M2.85747 9.84922H2.85746M2.85746 9.84922H2.85746M2.85746 9.84922H2.85746M2.85746 9.84922H2.85745M2.85746 9.84922H2.85745M2.85745 9.84922H2.85744M2.85745 9.84922H2.85744M2.85744 9.84922H2.85744M2.85744 9.84922H2.85744M2.85744 9.84922H2.85743M2.85744 9.84922H2.85743M2.85743 9.84922H2.85742M2.85743 9.84922H2.85742M2.85742 9.84922H2.85742M2.85742 9.84922H2.85742M2.85742 9.84922H2.85741M2.85742 9.84922H2.85741M2.85741 9.84922H2.8574M2.85741 9.84922H2.8574M2.8574 9.84922H2.8574M2.8574 9.84922H2.8574M2.8574 9.84922H2.85739M2.8574 9.84922H2.85739M2.85739 9.84922H2.85738M2.85739 9.84922H2.85738M2.85738 9.84922H2.85738M2.85738 9.84922H2.85738M2.85738 9.84922H2.85737M2.85738 9.84922H2.85737M2.85737 9.84922H2.85737M2.85737 9.84922H2.85737M2.85737 9.84922H2.85736M2.85737 9.84922H2.85736M2.85736 9.84922H2.85735M2.85736 9.84922H2.85735M2.85735 9.84922H2.85735M2.85735 9.84922H2.85735M2.85735 9.84922H2.85734M2.85735 9.84922H2.85734M2.85734 9.84922H2.85734M2.85734 9.84922H2.85734M2.85734 9.84922H2.85733M2.85734 9.84922H2.85733M2.85733 9.84922H2.85733M2.85733 9.84922H2.85733M2.85733 9.84922H2.85732M2.85733 9.84922H2.85732M2.85732 9.84922H2.85731M2.85732 9.84922H2.85731M2.85731 9.84922H2.85731M2.85731 9.84922H2.85731M2.85731 9.84922H2.8573M2.85731 9.84922H2.8573M2.8573 9.84922H2.8573M2.8573 9.84922H2.8573M2.8573 9.84922H2.85729M2.8573 9.84922H2.85729M2.85729 9.84922H2.85729M2.85729 9.84922H2.85729M2.85729 9.84922H2.85728M2.85729 9.84922H2.85728M2.85728 9.84922H2.85728M2.85728 9.84922H2.85728M2.85728 9.84922H2.85727M2.85728 9.84922H2.85727M2.85727 9.84922H2.85727M2.85727 9.84922H2.85727M2.85727 9.84922H2.85726M2.85727 9.84922H2.85726M2.85726 9.84922H2.85726M2.85726 9.84922H2.85726M2.85726 9.84922H2.85725M2.85726 9.84922H2.85725M2.85725 9.84922H2.85725M2.85725 9.84922H2.85725M2.85725 9.84922H2.85724M2.85725 9.84922H2.85724M2.85724 9.84922H2.85724M2.85724 9.84922H2.85724M2.85724 9.84922H2.85723M2.85724 9.84922H2.85723M2.85723 9.84922H2.85723M2.85723 9.84922H2.85723M2.85723 9.84922H2.85722M2.85723 9.84922H2.85722M2.85722 9.84922H2.85722M2.85722 9.84922H2.85722M2.85722 9.84922H2.85722M2.85722 9.84922H2.85722M2.85722 9.84922H2.85721M2.85722 9.84922H2.85721M2.85721 9.84922H2.85721M2.85721 9.84922H2.85721M2.85721 9.84922H2.8572M2.85721 9.84922H2.8572M2.8572 9.84922H2.8572M2.8572 9.84922H2.8572M2.8572 9.84922H2.85719M2.8572 9.84922H2.85719M2.85719 9.84922H2.85719M2.85719 9.84922H2.85719M2.85719 9.84922H2.85718M2.85719 9.84922H2.85718M2.85718 9.84922H2.85718M2.85718 9.84922H2.85718M2.85718 9.84922H2.85718M2.85718 9.84922H2.85718M2.85718 9.84922H2.85717M2.85718 9.84922H2.85717M2.85717 9.84922H2.85717M2.85717 9.84922H2.85717M2.85717 9.84922H2.85716M2.85717 9.84922H2.85716M2.85716 9.84922H2.85716M2.85716 9.84922H2.85716M2.85716 9.84922H2.85716M2.85716 9.84922H2.85716M2.85716 9.84922H2.85715M2.85716 9.84922H2.85715M2.85715 9.84922H2.85715M2.85715 9.84922H2.85715M2.85715 9.84922H2.85715M2.85715 9.84922H2.85715M2.85715 9.84922H2.85714M2.85715 9.84922H2.85714M2.85714 9.84922H2.85714M2.85714 9.84922H2.85714M2.85714 9.84922H2.85714M2.85714 9.84922H2.85714M2.85714 9.84922H2.85713M2.85714 9.84922H2.85713M2.85713 9.84922H2.85713M2.85713 9.84922H2.85713M2.85713 9.84922H2.85712M2.85713 9.84922H2.85712M2.85712 9.84922H2.85712M2.85712 9.84922H2.85712M2.85712 9.84922H2.85712M2.85712 9.84922H2.85712M2.85712 9.84922H2.85711M2.85712 9.84922H2.85711M2.85711 9.84922H2.85711M2.85711 9.84922H2.85711M2.85711 9.84922H2.85711M2.85711 9.84922H2.85711M2.85711 9.84922H2.85711M2.85711 9.84922H2.85711M2.85711 9.84922H2.8571M2.85711 9.84922H2.8571M2.8571 9.84922H2.8571M2.8571 9.84922H2.8571M2.8571 9.84922H2.8571M2.8571 9.84922H2.8571M2.8571 9.84922H2.85709M2.8571 9.84922H2.85709M2.85709 9.84922H2.85709M2.85709 9.84922H2.85709M2.85709 9.84922H2.85709M2.85709 9.84922H2.85709M2.85709 9.84922H2.85708M2.85709 9.84922H2.85708M2.85708 9.84922H2.85708M2.85708 9.84922H2.85708M2.85708 9.84922H2.85708M2.85708 9.84922H2.85708M2.85708 9.84922H2.85708M2.85708 9.84922H2.85708M2.85708 9.84922H2.85707M2.85708 9.84922H2.85707M2.85707 9.84922H2.85707M2.85707 9.84922H2.85707M2.85707 9.84922H2.85707M2.85707 9.84922H2.85707M2.85707 9.84922H2.85706M2.85707 9.84922H2.85706M2.85706 9.84922H2.85706M2.85706 9.84922H2.85706M2.85706 9.84922H2.85706M2.85706 9.84922H2.85706M2.85706 9.84922H2.85706M2.85706 9.84922H2.85706M2.85706 9.84922H2.85705M2.85706 9.84922H2.85705M2.85705 9.84922H2.85705M2.85705 9.84922H2.85705M2.85705 9.84922H2.85705M2.85705 9.84922H2.85705M2.85705 9.84922H2.85705M2.85705 9.84922H2.85705M2.85705 9.84922H2.85705M2.85705 9.84922H2.85705M2.85705 9.84922H2.85704M2.85705 9.84922H2.85704M2.85704 9.84922H2.85704M2.85704 9.84922H2.85704M2.85704 9.84922H2.85704M2.85704 9.84922H2.85704M2.85704 9.84922H2.85704M2.85704 9.84922H2.85704M2.85704 9.84922H2.85703M2.85704 9.84922H2.85703M2.85703 9.84922H2.85703M2.85703 9.84922H2.85703M2.85703 9.84922H2.85703M2.85703 9.84922H2.85703M2.85703 9.84922H2.85703M2.85703 9.84922H2.85703M2.85703 9.84922H2.85703M2.85703 9.84922H2.85703M2.85703 9.84922H2.85702M2.85703 9.84922H2.85702M2.85702 9.84922H2.85702M2.85702 9.84922H2.85702M2.85702 9.84922H2.85702M2.85702 9.84922H2.85702M2.85702 9.84922H2.85702M2.85702 9.84922H2.85702M2.85702 9.84922H2.85702M2.85702 9.84922H2.85702M2.85702 9.84922H2.85701M2.85702 9.84922H2.85701M2.85701 9.84922H2.85701M2.85701 9.84922H2.85701M2.85701 9.84922H2.85701M2.85701 9.84922H2.85701M2.85701 9.84922H2.85701M2.85701 9.84922H2.85701M2.85701 9.84922H2.85701M2.85701 9.84922H2.85701M2.85701 9.84922H2.85701M2.85701 9.84922H2.85701M2.85701 9.84922H2.857M2.85701 9.84922H2.857M2.857 9.84922H2.857M2.857 9.84922H2.857M2.857 9.84922H2.857M2.857 9.84922H2.857M2.857 9.84922H2.857M2.857 9.84922H2.857M2.857 9.84922H2.857M2.857 9.84922H2.857M2.857 9.84922H2.857M2.857 9.84922H2.857M2.857 9.84922H2.85699M2.857 9.84922H2.85699M2.85699 9.84922H2.85699M2.85699 9.84922H2.85699M2.85699 9.84922H2.85699M2.85699 9.84922H2.85699M2.85699 9.84922H2.85699M2.85699 9.84922H2.85699M2.85699 9.84922H2.85699M2.85699 9.84922H2.85699M2.85699 9.84922H2.85699M2.85699 9.84922H2.85699M2.85699 9.84922H2.85699M2.85699 9.84922H2.85699M2.85699 9.84922H2.85699M2.85699 9.84922H2.85699M2.85699 9.84922H2.85698M2.85699 9.84922H2.85698M2.85698 9.84922H2.85698M2.85698 9.84922H2.85698M2.85698 9.84922H2.85698M2.85698 9.84922H2.85698M2.85698 9.84922H2.85698M2.85698 9.84922H2.85698M2.85698 9.84922H2.85698M2.85698 9.84922H2.85698M2.85698 9.84922H2.85698M2.85698 9.84922H2.85698M2.85698 9.84922H2.85698M2.85698 9.84922H2.85698M2.85698 9.84922H2.85698M2.85698 9.84922H2.85698M2.85698 9.84922H2.85698M2.85698 9.84922H2.85698M2.85698 9.84922H2.85697M2.85698 9.84922H2.85697M2.85697 9.84922H2.85697M2.85697 9.84922H2.85697M2.85697 9.84922H2.85697M2.85697 9.84922H2.85697M2.85697 9.84922H2.85697M2.85697 9.84922H2.85697M2.85697 9.84922H2.85697M2.85697 9.84922H2.85697M2.85697 9.84922H2.85697M2.85697 9.84922H2.85697M2.85697 9.84922H2.85697M2.85697 9.84922H2.85697M2.85697 9.84922H2.85697M2.85697 9.84922H2.85697M2.85697 9.84922H2.85697M2.85697 9.84922H2.85697M2.85697 9.84922H2.85697M2.85697 9.84922H2.85697M2.85697 9.84922H2.85697M2.85697 9.84922H2.85697M2.85697 9.84922H2.85696M2.85697 9.84922H2.85696M2.85696 9.84922H2.85696M2.85696 9.84922H2.85696M2.85696 9.84922H2.85696M2.85696 9.84922H2.85696M2.85696 9.84922H2.85696M2.85696 9.84922H2.85696M2.85696 9.84922H2.85696M2.85696 9.84922H2.85696M2.85696 9.84922H2.85696M2.85696 9.84922H2.85696M2.85696 9.84922H2.85696M2.85696 9.84922H2.85696M2.85696 9.84922H2.85696M2.85696 9.84922H2.85696M2.85696 9.84922H2.85696M2.85696 9.84922H2.85696M2.85696 9.84922H2.85696M2.85696 9.84922H2.85696M2.85696 9.84922H2.85696M2.85696 9.84922H2.85696M2.85696 9.84922H2.85696M2.85696 9.84922H2.85696M2.85696 9.84922H2.85696M2.85696 9.84922H2.85696M2.85696 9.84922H2.85696M2.85696 9.84922H2.85696M2.85696 9.84922H2.85696M2.85696 9.84922H2.85696M2.85696 9.84922H2.85695M2.85696 9.84922H2.85695M2.85695 9.84922H2.85695M2.85695 9.84922H2.85695M2.85695 9.84922H2.85695M2.85695 9.84922H2.85695M2.85695 9.84922H2.85695M2.85695 9.84922H2.85695M2.85695 9.84922H2.85695M2.85695 9.84922H2.85695M2.85695 9.84922H2.85695M2.85695 9.84922H2.85695M2.85695 9.84922H2.85695M2.85695 9.84922H2.85695M2.85695 9.84922H2.85695M2.85695 9.84922H2.85695M2.85695 9.84922H2.85695M2.85695 9.84922H2.85695M2.85695 9.84922H2.85695M2.85695 9.84922H2.85695M2.85695 9.84922H2.85695M2.85695 9.84922H2.85695M2.85695 9.84922H2.85695M2.85695 9.84922H2.85695M2.85695 9.84922H2.85695M2.85695 9.84922H2.85695M2.85695 9.84922H2.85695M2.85695 9.84922H2.85695M2.85695 9.84922H2.85695M2.85695 9.84922H2.85695M2.85695 9.84922H2.85695M2.85695 9.84922H2.85695M2.85695 9.84922H2.85695M2.85695 9.84922H2.85695M2.85695 9.84922H2.85695M2.85695 9.84922H2.85695M2.85695 9.84922C2.46735 9.84922 2.14656 10.161 2.14607 10.5531L2.85695 9.84922Z" fill="black" stroke="black" stroke-width="0.2"/>
<path d="M4.0972 8.49753H11.5071C11.8983 8.49753 12.218 8.17786 12.218 7.78665C12.218 7.39545 11.8983 7.07578 11.5071 7.07578H4.0972C3.70599 7.07578 3.38633 7.39545 3.38633 7.78665C3.38633 8.17786 3.70599 8.49753 4.0972 8.49753Z" fill="black" stroke="black" stroke-width="0.2"/>
<path d="M31.1001 8.05001H31.1L31.0512 17.3103C31.0512 17.3104 31.0512 17.3104 31.0512 17.3105L31.0512 17.3109L30.9512 17.3103C30.9512 17.6463 30.6763 17.9151 30.3403 17.9151H29.1002C28.7643 17.9151 28.4894 17.6402 28.4894 17.3042C28.4894 16.9682 28.7643 16.6933 29.1002 16.6933L31.1001 8.05001ZM31.1001 8.05001L31.1 8.04615M31.1001 8.05001L31.1 8.04615M31.1 8.04615C31.093 7.83722 31.0025 7.6321 30.8378 7.49598L31.1 8.04615ZM29.6781 8.37731L29.6361 16.5933L30.8377 7.4959L26.4642 3.8737C26.4641 3.87365 26.4641 3.8736 26.464 3.87355C26.336 3.76691 26.1789 3.71002 26.0092 3.71002H20.9657V1.61087C20.9657 1.21966 20.646 0.9 20.2548 0.9H4.69583C4.30463 0.9 3.98496 1.21966 3.98496 1.61087V6.08247C3.98496 6.47368 4.30463 6.79334 4.69583 6.79334C5.08704 6.79334 5.40671 6.47368 5.40671 6.08247V2.32175H19.55V16.6056H14.6409C14.2496 16.6056 13.93 16.9252 13.93 17.3164C13.93 17.7076 14.2496 18.0273 14.6409 18.0273H22.0996C22.4908 18.0273 22.8105 17.7076 22.8105 17.3164C22.8105 16.9252 22.4908 16.6056 22.0996 16.6056H20.9718V5.13177H25.7594L29.6781 8.37731Z" fill="black" stroke="black" stroke-width="0.2"/>
</svg>
