<svg width="21" height="27" viewBox="0 0 21 27" fill="none" xmlns="http://www.w3.org/2000/svg">
<path d="M7.09153 7.98361V4.67289H8.24599V2.08911H2.14384V4.67289H3.2983V7.98361C1.31341 8.75964 0 10.6671 0 12.8211V26.9375H10.3898V12.8211C10.3897 10.667 9.07642 8.75964 7.09153 7.98361ZM2.96837 3.8483V2.91375H7.4213V3.8483H2.96837ZM9.56514 19.461H4.91996V20.2856H9.56514V21.2751H6.73413V22.0997H9.56514V26.1128H0.824641V12.8211C0.824641 10.9236 2.03582 9.25366 3.83847 8.66567L4.12289 8.57286V4.67289H6.26689V8.57286L6.55131 8.66567C8.35395 9.25366 9.56508 10.9236 9.56508 12.8211V19.461H9.56514Z" fill="white"/>
<path d="M3.29825 0V2.10448H4.12289V0.824589H6.26688V2.10448H7.09152V0H3.29825Z" fill="white"/>
<path d="M9.78582 13.7435V12.9189H3.18826V23.9138H9.78582V23.0892H4.16805V13.7435H9.78582Z" fill="white"/>
<path d="M12.2591 16.3633V26.9375H21V16.3633H12.2591ZM20.1754 26.1129H13.0837V25.3768H20.1754V26.1129ZM20.1754 20.3353V24.5521H13.0837V20.3353H20.1754ZM20.1754 19.5107H13.0837V17.1879H20.1754V19.5107Z" fill="white"/>
<path d="M14.5877 20.7334H13.9628V21.3583H14.5877V20.7334Z" fill="white"/>
<path d="M19.7124 20.8169H19.0875V21.4418H19.7124V20.8169Z" fill="white"/>
<path d="M16.9463 20.8911L16.5045 21.333L16.9463 21.7749L17.3882 21.333L16.9463 20.8911Z" fill="white"/>
<path d="M19.0203 22.8164L18.5784 23.2583L19.0203 23.7002L19.4622 23.2583L19.0203 22.8164Z" fill="white"/>
<path d="M13.9881 23.3911L13.5462 23.833L13.9881 24.2749L14.43 23.833L13.9881 23.3911Z" fill="white"/>
<path d="M15.2545 22.1919H14.6296V22.8168H15.2545V22.1919Z" fill="white"/>
<path d="M17.6713 23.4832H17.0463V24.1081H17.6713V23.4832Z" fill="white"/>
</svg>
