<svg width="21" height="20" viewBox="0 0 21 20" fill="none" xmlns="http://www.w3.org/2000/svg">
<path opacity="0.8" d="M12.6602 9.99858L19.82 2.85447C20.1335 2.54089 20.3097 2.11558 20.3097 1.67211C20.3097 1.22864 20.1335 0.80333 19.82 0.489749C19.5064 0.176168 19.0812 0 18.6378 0C18.1944 0 17.7691 0.176168 17.4556 0.489749L10.3125 7.65052L3.1694 0.489749C2.85587 0.176168 2.43062 -3.30411e-09 1.98721 0C1.5438 3.30412e-09 1.11856 0.176168 0.805021 0.489749C0.491485 0.80333 0.315342 1.22864 0.315342 1.67211C0.315342 2.11558 0.491485 2.54089 0.805021 2.85447L7.96477 9.99858L0.805021 17.1427C0.648958 17.2975 0.525088 17.4817 0.440555 17.6846C0.356022 17.8875 0.3125 18.1052 0.3125 18.3251C0.3125 18.5449 0.356022 18.7626 0.440555 18.9655C0.525088 19.1684 0.648958 19.3526 0.805021 19.5074C0.95981 19.6635 1.14397 19.7874 1.34687 19.8719C1.54977 19.9565 1.7674 20 1.98721 20C2.20702 20 2.42465 19.9565 2.62755 19.8719C2.83046 19.7874 3.01461 19.6635 3.1694 19.5074L10.3125 12.3466L17.4556 19.5074C17.6104 19.6635 17.7945 19.7874 17.9974 19.8719C18.2003 19.9565 18.418 20 18.6378 20C18.8576 20 19.0752 19.9565 19.2781 19.8719C19.481 19.7874 19.6652 19.6635 19.82 19.5074C19.976 19.3526 20.0999 19.1684 20.1844 18.9655C20.269 18.7626 20.3125 18.5449 20.3125 18.3251C20.3125 18.1052 20.269 17.8875 20.1844 17.6846C20.0999 17.4817 19.976 17.2975 19.82 17.1427L12.6602 9.99858Z" fill="white"/>
</svg>
