<svg width="24" height="24" viewBox="0 0 24 24" fill="none" xmlns="http://www.w3.org/2000/svg">
<path d="M12 0C9.62663 0 7.30655 0.703788 5.33316 2.02236C3.35977 3.34094 1.8217 5.21508 0.913451 7.4078C0.00519943 9.60051 -0.232441 12.0133 0.230582 14.3411C0.693605 16.6689 1.83649 18.807 3.51472 20.4853C5.19295 22.1635 7.33115 23.3064 9.65892 23.7694C11.9867 24.2324 14.3995 23.9948 16.5922 23.0865C18.7849 22.1783 20.6591 20.6402 21.9776 18.6668C23.2962 16.6934 24 14.3734 24 12C24 8.8174 22.7357 5.76515 20.4853 3.51472C18.2348 1.26428 15.1826 0 12 0ZM12 22C10.0222 22 8.08879 21.4135 6.4443 20.3147C4.79981 19.2159 3.51809 17.6541 2.76121 15.8268C2.00433 13.9996 1.8063 11.9889 2.19215 10.0491C2.578 8.10929 3.53041 6.32746 4.92894 4.92893C6.32746 3.53041 8.10929 2.578 10.0491 2.19215C11.9889 1.80629 13.9996 2.00433 15.8268 2.7612C17.6541 3.51808 19.2159 4.79981 20.3147 6.4443C21.4135 8.08879 22 10.0222 22 12C22 14.6522 20.9464 17.1957 19.0711 19.0711C17.1957 20.9464 14.6522 22 12 22Z" fill="white"/>
<path d="M12.0005 9.69981C11.7353 9.69981 11.4809 9.80517 11.2934 9.99271C11.1058 10.1802 11.0005 10.4346 11.0005 10.6998V17.4998C11.0005 17.765 11.1058 18.0194 11.2934 18.2069C11.4809 18.3945 11.7353 18.4998 12.0005 18.4998C12.2657 18.4998 12.52 18.3945 12.7076 18.2069C12.8951 18.0194 13.0005 17.765 13.0005 17.4998V10.6998C13.0005 10.4346 12.8951 10.1802 12.7076 9.99271C12.52 9.80517 12.2657 9.69981 12.0005 9.69981ZM12.0005 5.59981C11.7298 5.60999 11.4732 5.72343 11.2835 5.91684C11.0938 6.11025 10.9854 6.36895 10.9805 6.63981V6.79981C10.98 6.93029 11.0067 7.05943 11.0589 7.17902C11.111 7.29861 11.1875 7.40604 11.2834 7.49446C11.3794 7.58288 11.4927 7.65036 11.6161 7.6926C11.7396 7.73484 11.8705 7.75092 12.0005 7.73981C12.2625 7.72991 12.5112 7.62138 12.6966 7.43594C12.882 7.25051 12.9906 7.00187 13.0005 6.73981V6.49981C13.0013 6.37272 12.9751 6.2469 12.9238 6.13063C12.8724 6.01437 12.797 5.9103 12.7026 5.82527C12.6081 5.74025 12.4967 5.6762 12.3757 5.63734C12.2547 5.59848 12.1268 5.58569 12.0005 5.59981Z" fill="white"/>
</svg>
