<svg width="75" height="75" viewBox="0 0 75 75" fill="none" xmlns="http://www.w3.org/2000/svg">
<rect width="75" height="75" rx="12.5" fill="#403377"/>
<path fill-rule="evenodd" clip-rule="evenodd" d="M20.5866 49.9852C20.7268 49.9096 20.6742 49.8184 20.8064 49.7132C21.061 49.5104 20.8405 49.5464 21.0292 49.4259C21.146 49.3513 21.0978 49.4156 21.1661 49.2835C21.2347 49.1509 21.1738 49.2393 21.2835 49.1605C21.411 49.0688 21.3234 49.1074 21.3836 48.9892C21.4244 48.9095 21.4562 48.9347 21.5278 48.8875C21.6095 48.8339 21.5763 48.8161 21.6596 48.7439C21.8952 48.5401 21.7249 48.6143 21.9404 48.401C22.1723 48.1715 22.2148 48.2164 22.2797 48.0894C22.3837 47.8857 22.3372 48.0679 22.5032 47.7956C22.5136 47.7783 22.7776 47.5311 22.8756 47.3769C22.9208 47.3063 22.9258 47.2958 22.9853 47.2415C23.2701 46.9837 23.0556 47.0815 23.236 46.9681C23.3407 46.9021 23.3026 46.9454 23.3558 46.8294L23.587 46.5403C23.6418 46.4752 23.6726 46.4729 23.7188 46.4235C23.7723 46.3665 23.7683 46.316 23.8178 46.2577C23.8667 46.2004 23.9196 46.1896 23.9631 46.1501C24.023 46.0961 24.0112 46.0566 24.0668 45.989C24.1009 45.9478 24.1668 45.9026 24.1983 45.8706C24.2973 45.7691 24.2659 45.737 24.5018 45.6117C24.4924 45.5331 24.6005 45.4783 24.7186 45.2985C24.7731 45.2152 24.8197 45.2161 24.8708 45.1478C24.9361 45.0608 24.8692 45.0746 24.9836 44.9928C25.0924 44.9149 25.0726 44.9612 25.1359 44.8435L25.3808 44.5217C25.4564 44.4466 25.5049 44.4782 25.4862 44.3818C25.4504 44.2525 25.4735 44.1842 25.5896 44.1074C25.7378 44.0092 25.6532 44.0141 25.7418 43.9114C25.8583 43.7765 25.8435 43.9365 25.9279 43.7187C25.9824 43.5776 26.0169 43.6118 26.1015 43.5337C26.15 43.4885 26.131 43.4761 26.1758 43.4235C26.2464 43.3402 26.2347 43.3861 26.2946 43.3412C26.3789 43.2782 26.3434 43.1744 26.407 43.1112C26.5255 42.9943 26.5211 43.1922 26.5931 42.9297C26.6272 42.8055 26.6342 42.8156 26.7871 42.7754C26.7938 42.7012 26.7848 42.6175 26.8176 42.5478C26.8433 42.493 26.8162 42.4853 27.0197 42.4743L27.0357 42.3141L27.2218 42.3075C27.2345 42.1459 27.2315 42.0659 27.3707 42.0168L27.4232 42.0028C27.4617 41.9429 27.458 41.8989 27.4992 41.8369L27.5202 41.8079C27.5236 41.8044 27.5289 41.7983 27.5326 41.7948C27.5363 41.7916 27.5427 41.7859 27.547 41.7831L27.6591 41.7492L27.6715 41.5661L27.8826 41.5364C27.8937 41.4248 27.9101 41.3539 28.0081 41.2901C28.2072 41.1602 28.0583 41.2047 28.1875 41.1083C28.4039 40.9467 28.242 41.0765 28.3531 40.9046C28.4491 40.7558 28.4615 40.8777 28.5368 40.7329C28.5856 40.6389 28.5328 40.6847 28.6194 40.616C28.8821 40.408 28.6653 40.4515 28.8724 40.3261C29.0491 40.2193 28.9229 40.237 29.0263 40.1114C29.1123 40.0076 29.0728 40.0941 29.218 40.0036L29.2776 39.9559C29.3147 39.8452 29.3927 39.9098 29.46 39.7554C29.556 39.5356 29.5065 39.686 29.6366 39.5526C29.7005 39.4871 29.6617 39.5023 29.7092 39.4387C29.7544 39.3784 29.7507 39.4053 29.8089 39.3452C29.8792 39.2724 29.8886 39.1849 29.9562 39.1201C30.0773 39.0037 29.987 39.1419 30.1365 38.9187C30.2265 38.7845 30.2473 38.8544 30.3477 38.7429C30.4949 38.5791 30.5337 38.4287 30.6655 38.309C30.7475 38.2343 30.701 38.2713 30.7512 38.1773L30.7903 38.1137C30.8425 38.0524 30.777 38.1146 30.8322 38.0755C31.0968 37.8889 30.87 38.0552 31.0058 37.8664C31.1042 37.7301 31.1403 37.836 31.2133 37.687C31.3056 37.4985 31.2551 37.6016 31.3809 37.4779C31.4278 37.4321 31.4224 37.4138 31.4569 37.3663C31.5124 37.2903 31.495 37.3312 31.5596 37.2756C31.6433 37.2038 31.6433 37.1214 31.7072 37.0513C31.7821 36.9694 31.7487 37.0534 31.8112 36.9572C31.8423 36.9095 31.8443 36.8597 31.8604 36.8253C31.9237 36.6913 31.9825 36.7608 32.0595 36.6403C32.1759 36.4586 32.0143 36.5853 32.2372 36.4183L32.4617 36.1507C32.5979 35.9709 32.4269 36.0672 32.6598 35.8962C32.7582 35.8242 32.6845 35.8953 32.7404 35.7849C32.81 35.6476 32.8552 35.7087 32.9265 35.5896C33.081 35.333 33.2821 35.217 33.4157 34.9529C33.4846 34.8163 33.5254 34.883 33.602 34.7323C33.7272 34.4865 33.68 34.6102 33.7707 34.5223C33.8413 34.4542 33.8302 34.367 33.9008 34.2856C34.0012 34.1696 33.9447 34.3076 34.0768 34.0828C34.1324 33.9883 34.2301 33.9436 34.2622 33.8891C34.3415 33.7556 34.21 33.8837 34.4091 33.6625C34.4513 33.6155 34.4559 33.5928 34.4814 33.5486L34.6316 33.3259C34.6671 33.2793 34.6795 33.2728 34.6721 33.2106C34.6677 33.1385 34.6902 33.0047 34.7223 32.9289C34.8294 32.6735 34.8849 32.9935 34.9053 32.1276C34.915 31.7227 34.9113 31.3176 34.9036 30.9127C34.8869 30.0302 34.7025 30.5422 34.6741 29.862C34.656 29.4244 34.553 29.6938 34.4784 29.3853C34.4295 29.1818 34.4496 29.2793 34.3191 29.1867C34.2234 29.1187 34.2615 28.9811 34.1796 28.9545C34.1277 28.9376 34.0568 28.9203 34.0313 28.8819C34.0002 28.8347 34.0133 28.7547 33.9858 28.6967C33.946 28.6132 33.9283 28.6513 33.8577 28.5697C33.8055 28.5091 33.8185 28.4876 33.77 28.4188C33.7104 28.3339 33.7088 28.3788 33.6402 28.3023C33.5903 28.2467 33.5876 28.1999 33.5512 28.151C33.4689 28.0406 33.3484 28.0801 33.3658 27.8717C33.3614 27.7908 33.2122 27.6942 33.1456 27.6231C33.1179 27.5934 33.1376 27.6114 33.1005 27.5835C33.0168 27.5216 33.0807 27.6142 33.0088 27.5108C32.9542 27.4327 32.9606 27.3695 32.8866 27.29L32.529 26.9361C32.4714 26.8496 32.4697 26.8072 32.3807 26.7326C32.2803 26.6486 32.3238 26.5986 32.2499 26.5195C32.196 26.462 32.2034 26.498 32.1401 26.4334C32.1084 26.4009 32.0993 26.378 32.0746 26.3396C31.9096 26.0809 31.6921 25.9967 31.6402 25.8536C31.5536 25.6136 31.6004 25.8927 31.4231 25.5572L31.1437 25.2773C31.0855 25.2454 31.0788 25.2679 31.0319 25.2249C30.9707 25.1685 30.9911 25.0543 30.9392 24.9863C30.8616 24.8845 30.8131 24.9793 30.7589 24.8139C30.6926 24.6106 30.6839 24.765 30.5785 24.6085L30.4079 24.4214C30.3339 24.3533 30.3851 24.4046 30.346 24.3068C30.2811 24.1456 30.1516 24.2268 30.1021 24.0369C30.0475 23.8261 30.0813 23.9681 29.9508 23.8294L29.7808 23.6439C29.6594 23.5372 29.7116 23.5379 29.6353 23.4444C29.5777 23.374 29.4948 23.3543 29.4539 23.2722C29.3833 23.1296 29.4215 23.1759 29.3047 23.0657C29.2394 23.0042 29.2384 22.9172 29.1819 22.8479L28.6626 22.2994C28.5666 22.2162 28.5963 22.1617 28.5194 22.0945C28.4397 22.0255 28.3862 22.0045 28.3507 21.9123C28.2828 21.7374 28.2771 21.8485 28.1791 21.7266C28.1406 21.6786 28.1533 21.6648 28.1055 21.6139C28.0339 21.5374 28.0583 21.5923 28.0001 21.5231C27.9372 21.4487 27.9338 21.3909 27.8502 21.3247C27.7207 21.2221 27.7635 21.2511 27.6916 21.1322C27.641 21.0485 27.5724 21.063 27.5099 20.9568L27.2034 20.5604C27.0468 20.4408 27.1435 20.5211 27.0434 20.3681C26.9882 20.2836 26.9176 20.2904 26.847 20.2053L26.6948 20.006C26.5834 19.9106 26.6342 19.8785 26.5529 19.8004C26.4314 19.6841 26.4877 19.8009 26.3859 19.6133C26.3378 19.5246 26.2795 19.5101 26.2143 19.4299C26.0774 19.2617 26.0895 19.3618 26.0001 19.2783C25.9433 19.225 25.9212 19.1359 25.8459 19.0795C25.7107 18.978 25.7756 18.9205 25.6575 18.8367L25.5819 18.7972C25.5207 18.7525 25.522 18.6929 25.4795 18.6391C25.4323 18.5799 25.3687 18.5801 25.3279 18.5149C25.249 18.3888 25.339 18.4187 25.187 18.3022C25.0355 18.186 25.1312 18.2033 25.0448 18.1013C25.0017 18.0506 24.9799 18.0667 24.9274 18.0178C24.911 18.0026 24.8802 17.9476 24.8702 17.9217C24.814 17.7769 24.8782 17.8099 24.7343 17.707C24.6416 17.6405 24.635 17.6015 24.464 17.5926C23.9229 17.5645 23.2664 17.6008 22.7769 17.5552C22.5761 17.5364 22.1435 17.5245 21.9551 17.5222C20.1098 17.5004 13.8935 17.3732 12.8897 17.54C12.4102 17.6197 12.1963 17.5357 11.9922 17.83C11.8323 18.0599 11.8417 18.0887 11.9859 18.2969C12.0367 18.3698 12.0287 18.4749 12.0622 18.5514C12.1177 18.6781 12.1515 18.6117 12.2285 18.7406C12.2857 18.8365 12.285 18.8615 12.3673 18.9457C12.4517 19.0325 12.4339 19.0772 12.5072 19.1516C12.6701 19.3167 12.6778 19.385 12.8361 19.5263C12.9214 19.6025 12.9044 19.6523 12.9673 19.748L13.2831 20.1304C13.3363 20.2107 13.3327 20.2635 13.4183 20.3344L13.4511 20.3627C13.503 20.4193 13.5037 20.4839 13.5645 20.5365C13.5686 20.54 13.5756 20.5449 13.5799 20.5482C13.8048 20.7271 13.8818 20.9257 14.0678 21.1213C14.1514 21.209 14.1618 21.2342 14.2144 21.3301C14.2669 21.426 14.3308 21.4176 14.3954 21.4995C14.475 21.6003 14.4148 21.6232 14.5272 21.7095C14.7163 21.8545 14.5764 21.7568 14.6697 21.924L14.8976 22.2012C14.9016 22.2056 14.9066 22.2117 14.9103 22.2164C15.0418 22.3691 15.1897 22.52 15.2988 22.6959C15.3691 22.8091 15.6204 23.0397 15.7003 23.1894C15.7134 23.2138 15.7298 23.2526 15.7542 23.287C15.7575 23.2914 15.7619 23.2975 15.7652 23.3019L15.8432 23.3843C15.9041 23.4411 15.87 23.3796 15.9232 23.4781C16.0436 23.7014 16.305 23.8392 16.4207 24.0537C16.496 24.1929 16.5041 24.1573 16.5807 24.2471C16.6459 24.3236 16.6295 24.3779 16.7165 24.456C16.8423 24.5688 16.7865 24.5257 16.8584 24.6675C16.9056 24.761 16.9645 24.7493 17.0334 24.8434L17.6705 25.6115C17.7515 25.709 17.6835 25.7249 17.794 25.8304C17.8672 25.9006 17.8963 25.9376 17.9532 26.0241C18.0342 26.1469 18.0576 26.1179 18.1252 26.2044C18.2032 26.3043 18.1523 26.3137 18.2624 26.414C18.3487 26.4929 18.3879 26.5258 18.3735 26.6383C18.4468 26.5904 18.3072 26.6269 18.4515 26.6063L18.6308 26.8591C18.7114 26.9651 18.7452 26.9258 18.8202 27.0797C18.8901 27.2231 18.9554 27.1824 19.0216 27.3113C19.1581 27.5772 19.1029 27.4184 19.1963 27.5391L19.3934 27.7728C19.477 27.8584 19.4579 27.9087 19.5633 28.0041C19.6065 28.0432 19.6383 28.0649 19.6701 28.1194C19.8237 28.384 19.7447 28.188 19.9338 28.471C20.0388 28.6282 20.0756 28.5351 20.1272 28.7173C20.1767 28.8927 20.2192 28.7884 20.3098 28.9371C20.4577 29.179 20.436 29.0113 20.5267 29.1537C20.6354 29.325 20.5109 29.2326 20.694 29.3869C20.8191 29.4927 20.7545 29.546 20.8706 29.6375C21.0691 29.7935 20.9476 29.7235 21.1644 29.9698C21.2103 30.022 21.2093 30.0501 21.2487 30.0989L21.6392 30.5504C21.6757 30.6079 21.669 30.6404 21.7139 30.6849C21.8243 30.7936 21.7945 30.6601 21.9046 30.9019C21.9886 31.087 21.9427 30.872 22.1167 31.1237C22.2378 31.2989 22.2482 31.1796 22.3131 31.3363C22.3533 31.4334 22.2967 31.3835 22.3921 31.4703L22.7752 31.926C22.882 32.1323 23.16 32.3283 23.1811 32.3648C23.2095 32.4139 23.2102 32.4665 23.2473 32.5082C23.3113 32.5797 23.2959 32.5236 23.3688 32.586C23.4625 32.666 23.3842 32.728 23.5388 32.8424C23.6944 32.9575 23.606 32.9687 23.7148 33.0705C23.7911 33.1416 23.7586 33.0728 23.8319 33.1752C23.8781 33.2396 23.8523 33.2365 23.9259 33.2959C24.203 33.5205 23.9253 33.367 24.2154 33.6323C24.2542 33.6678 24.2716 33.6971 24.303 33.7354C24.3295 33.7677 24.4636 33.8957 24.4968 33.9195L24.9324 34.2037C25.1195 34.3731 25.0161 34.2755 25.1332 34.3455C25.2148 34.3941 25.3048 34.635 26.0369 34.5239C26.4455 34.462 25.8927 34.4905 26.5767 34.3555C26.5927 34.2112 26.6074 33.9235 26.57 33.7864C26.5315 33.6461 26.484 33.7118 26.41 33.618C26.3712 33.5689 26.3585 33.4618 26.3368 33.39C26.1735 33.3238 26.2026 33.3348 26.1367 33.1926C26.0564 33.0206 26.0443 33.1584 25.9429 32.9792C25.8606 32.8335 25.8332 32.8644 25.7589 32.7622C25.6351 32.5919 25.8134 32.6625 25.523 32.5956C25.4915 32.3816 25.4952 32.3713 25.2888 32.2918C25.261 32.0453 25.1599 32.1173 25.0786 31.9552C24.923 31.645 24.9495 31.8745 24.8478 31.649C24.7822 31.5033 24.8384 31.5915 24.7129 31.507C24.6313 31.4518 24.649 31.4317 24.6112 31.3464C24.5349 31.1756 24.5771 31.3197 24.4536 31.2229C24.3405 31.134 24.5014 31.1796 24.296 31.0271C24.1678 30.9319 24.208 30.8615 24.1441 30.7611C24.1103 30.7083 24.0568 30.6933 24.0032 30.6257C23.9427 30.5494 23.9771 30.5324 23.9002 30.4624C23.8413 30.4091 23.8018 30.4126 23.7573 30.3317C23.7001 30.2271 23.7636 30.2526 23.6536 30.1682C23.514 30.0611 23.5147 29.996 23.4331 29.8522C23.3313 29.83 23.3795 29.7981 23.328 29.7196C23.2738 29.6365 23.2376 29.6552 23.1828 29.5883C23.0519 29.4293 23.2661 29.6106 22.9582 29.3002C22.8793 29.2206 22.9208 29.2164 22.8659 29.1301C22.7996 29.0251 22.8281 29.1102 22.7227 29.0209L22.4891 28.7432C22.4667 28.707 22.4634 28.6883 22.4436 28.6576C22.3961 28.5849 22.4262 28.6272 22.3757 28.5849C22.1699 28.412 22.2763 28.4097 22.1723 28.2822C22.1211 28.2195 22.0946 28.2198 22.0488 28.1585L21.7055 27.7213C21.6215 27.6521 21.6519 27.6862 21.5857 27.595C21.5138 27.4958 21.5318 27.5279 21.4492 27.457C21.3531 27.3747 21.4043 27.3803 21.3438 27.2979C21.2578 27.1805 21.2705 27.2834 21.1825 27.1794C21.1484 27.1389 21.1403 27.0652 21.1146 27.0154C21.0614 26.912 21.0453 26.9656 20.974 26.8776C20.9423 26.8381 20.9188 26.7653 20.889 26.7265C20.8198 26.6355 20.8218 26.6858 20.7509 26.5888L20.427 26.1609C20.1392 25.8901 20.3634 25.9967 20.2034 25.8737C19.9926 25.7116 20.1051 25.7364 19.9662 25.5951L19.6212 25.154C19.565 25.0674 19.5553 25.0883 19.4837 25.0216C19.4141 24.957 19.4265 24.929 19.3766 24.86C19.3251 24.7884 19.3097 24.8045 19.2502 24.7386C19.2016 24.6845 19.1789 24.6279 19.1391 24.584C19.0701 24.5086 19.0685 24.5493 18.9969 24.4757C18.9209 24.3978 18.9677 24.3713 18.9239 24.286C18.8884 24.2165 18.8657 24.2476 18.7934 24.1707C18.7369 24.1105 18.7476 24.0764 18.6827 24.0142C18.6127 23.947 18.6121 23.9817 18.5579 23.8881L18.2085 23.4584C17.9646 23.272 18.151 23.3784 18.0181 23.2647C17.9877 23.2388 17.9228 23.2093 17.8856 23.1518C17.8826 23.1471 17.8789 23.141 17.8763 23.1361C17.725 22.8489 17.9007 23.0753 17.7157 22.916C17.5912 22.8086 17.7377 22.8119 17.5122 22.6136C17.4235 22.5354 17.273 22.2657 17.1676 22.2003C16.9735 22.0793 17.0023 21.9928 16.9427 21.9151C16.8818 21.8358 16.8638 21.8821 16.8055 21.7736C16.7607 21.6896 16.7965 21.6988 16.7108 21.6305L16.3431 21.2134C16.2541 21.0609 16.3414 21.1736 16.2049 21.0955C16.1122 21.0424 16.143 21.027 16.0998 20.943C16.0246 20.7971 16.0935 20.9014 15.9576 20.824C15.8496 20.7624 15.9075 20.7676 15.8583 20.6708C15.7847 20.5248 15.7806 20.624 15.7114 20.5363C15.6642 20.4764 15.691 20.4097 15.6552 20.336C15.6217 20.2668 15.5852 20.2717 15.527 20.2158C15.4644 20.1559 15.4725 20.1211 15.4223 20.0556C15.3711 19.9887 15.3473 20.0097 15.2924 19.9354C15.2433 19.8687 15.2637 19.8362 15.2004 19.7651C15.1466 19.7045 15.1292 19.7183 15.0736 19.642C15.0365 19.5911 15.0224 19.5286 14.9696 19.4835C14.8789 19.4063 14.9177 19.4849 14.8427 19.3572C14.7768 19.2444 14.3817 18.9497 14.8913 18.8042C15.0395 18.7619 15.3102 18.7843 15.5002 18.7846C18.0175 18.7867 20.694 18.7612 23.1911 18.782C23.4548 18.7843 23.4976 18.8133 23.5963 18.9495C23.6954 19.0858 23.7442 19.0821 23.8449 19.2177C23.9503 19.3595 23.9406 19.2622 24.0936 19.4851C24.1645 19.5885 24.1648 19.5412 24.2374 19.6189C24.2876 19.6727 24.2829 19.7096 24.3328 19.7639L24.5968 20.0224C24.6972 20.09 24.6855 20.0355 24.735 20.1541C24.7942 20.2956 24.7153 20.2158 24.8374 20.2986L25.0937 20.562C25.1365 20.6134 25.1526 20.6841 25.1914 20.7304C25.2526 20.8036 25.254 20.7507 25.3239 20.8492L25.5394 21.1493C25.6227 21.2908 25.7017 21.2412 25.7984 21.4099C25.9195 21.6213 25.8345 21.4061 26.0369 21.6845C26.0988 21.7694 26.23 21.8407 26.2715 21.9404C26.4241 21.978 26.4438 22.0178 26.5057 22.098C26.582 22.197 26.6138 22.1448 26.6861 22.2482L26.8069 22.3609C26.8791 22.4068 26.9136 22.4875 26.9437 22.5534L26.9725 22.6096C27.0836 22.7527 27.1361 22.6379 27.1599 22.8868C27.379 22.9059 27.3305 22.9015 27.3874 23.0149C27.4319 23.1038 27.535 23.1083 27.5684 23.1908C27.6009 23.2711 27.5875 23.3309 27.6732 23.3885C27.7759 23.4577 27.817 23.5597 27.9188 23.6353C28.0794 23.7543 27.9706 23.8055 28.2055 23.8804L28.2534 24.1084C28.498 24.1819 28.3862 24.2135 28.5298 24.3124C28.6787 24.4151 28.6947 24.5491 28.7382 24.562L28.7914 24.5776C28.7988 24.58 28.8081 24.5828 28.8148 24.5851C28.8215 24.5875 28.8302 24.5905 28.8366 24.5926C28.8637 24.6027 28.8791 24.6125 28.9065 24.6265L28.9222 24.8614L29.11 24.906C29.1371 25.1708 29.1411 24.9634 29.2846 25.0855C29.3428 25.1348 29.3485 25.2613 29.3525 25.3477C29.569 25.3617 29.5162 25.4641 29.647 25.5416C29.7695 25.6138 29.7708 25.6393 29.7895 25.7958C29.834 25.8615 29.9388 25.8543 29.9756 25.971C30.0268 26.1333 29.9525 26.1121 30.2111 26.1221L30.2265 26.3565C30.2349 26.3616 30.2473 26.3661 30.255 26.3691C30.2623 26.3722 30.2737 26.3775 30.2827 26.381C30.4293 26.4384 30.4447 26.447 30.4527 26.5864C30.5488 26.5878 30.5953 26.5885 30.6448 26.6128L30.6632 26.8472C30.882 26.9775 30.7261 26.7625 30.874 27.0322C30.9008 27.0809 30.8814 27.0587 30.9305 27.0956C31.2297 27.3206 30.9854 27.2205 31.1517 27.3585C31.3501 27.5234 31.2541 27.512 31.3531 27.6331C31.4606 27.7646 31.5138 27.6231 31.5368 27.9346C31.7115 27.9463 31.7195 27.9723 31.758 28.0673C31.8316 28.2478 31.9421 28.1905 31.9735 28.4235C32.0615 28.43 32.1067 28.4347 32.1508 28.4569C32.196 28.6742 32.1224 28.6455 32.3205 28.7442C32.356 28.7617 32.373 28.7743 32.3844 28.7987C32.3998 28.831 32.4058 28.9654 32.4098 29.0078C32.7548 29.1268 32.5059 29.179 32.7046 29.3343C32.891 29.4796 32.7899 29.5172 32.8602 29.6045C32.98 29.6744 32.9991 29.6239 33.0369 29.7509C33.063 29.8381 33.0593 29.9186 33.0901 30.0016C33.1516 30.167 33.25 30.2433 33.2611 30.4447C33.2845 30.8739 33.3885 32.1786 33.1486 32.5208C33.0513 32.6597 33.0857 32.8719 32.982 32.9675C32.8706 33.0707 32.8974 32.9783 32.8234 33.1399C32.7822 33.2297 32.8 33.2101 32.6963 33.2552C32.5457 33.3203 32.7056 33.5378 32.4366 33.5163C32.3985 33.6002 32.3954 33.7018 32.3362 33.7565C32.2188 33.8657 32.2573 33.727 32.1669 33.9214C32.1033 34.0578 32.0558 34.0072 31.9939 34.1006C31.9032 34.2369 32.0364 34.1897 31.8668 34.2856C31.7205 34.3684 31.7808 34.4952 31.6456 34.5752C31.4646 34.6821 31.5506 34.7134 31.3997 34.8275C31.2825 34.916 31.3083 34.8797 31.2869 35.0308C31.0025 35.0991 31.1715 35.0469 31.0547 35.1955C30.9918 35.2757 30.9402 35.2619 30.8814 35.3718C30.7525 35.6132 30.6863 35.4406 30.6204 35.8027C30.5715 35.8221 30.5441 35.8249 30.4574 35.8289C30.436 36.107 30.3035 36.0247 30.2255 36.191C30.1395 36.3746 30.1171 36.3046 29.998 36.4412L29.9261 36.5322C29.8284 36.6108 29.8387 36.5276 29.7929 36.6604C29.6962 36.9406 29.829 36.8124 29.563 36.9048C29.555 36.9956 29.5563 37.0587 29.4707 37.1256L29.3465 37.2286C29.2354 37.3953 29.3301 37.2985 29.2097 37.3577C29.1304 37.3967 29.0788 37.5067 29.0002 37.5666C28.8687 37.6664 28.9396 37.7298 28.8356 37.8035C28.7372 37.8732 28.781 37.7764 28.7068 37.8959C28.6746 37.9473 28.687 37.9717 28.6465 38.021C28.5438 38.1469 28.5569 38.0168 28.4481 38.2336C28.3966 38.3363 28.3072 38.3728 28.2581 38.4502C28.254 38.4568 28.1202 38.7096 28.0824 38.6591C28.079 38.6547 28.0673 38.6666 28.0536 38.6708L28.0375 38.9749C27.905 39.0228 27.815 39.0656 27.8037 39.1852L27.6093 39.2319C27.6026 39.3613 27.5855 39.4172 27.5694 39.5124C27.2713 39.5124 27.45 39.5522 27.3332 39.6792C27.273 39.7447 27.2312 39.7145 27.1739 39.7762C27.1258 39.8282 27.1626 39.7985 27.1355 39.8497C27.0836 39.9482 26.9829 39.925 26.932 40.0335C26.8701 40.1657 26.9166 40.1421 26.7918 40.2279C26.5927 40.3647 26.8711 40.3488 26.5118 40.4277C26.4823 40.5652 26.4917 40.5818 26.3759 40.6646C26.223 40.7743 26.318 40.7493 26.225 40.8658C26.1326 40.9815 26.127 40.8929 26.056 41.0527C25.976 41.2328 25.9613 41.1043 25.8646 41.2171C25.8041 41.288 25.8305 41.3556 25.7328 41.429C25.6558 41.4868 25.69 41.3951 25.6301 41.5258C25.6063 41.5778 25.6247 41.5904 25.5909 41.6405C25.5317 41.7282 25.4644 41.6868 25.4152 41.8269C25.3647 41.9705 25.4209 41.9277 25.2024 41.9646C25.175 42.1426 25.2195 42.218 24.986 42.236C24.9532 42.4404 24.9512 42.3805 24.8002 42.5045C24.6597 42.62 24.8344 42.6713 24.5587 42.7101C24.5426 42.792 24.551 42.8666 24.4633 42.9258C24.201 43.104 24.397 43.0794 24.205 43.2116C24.1143 43.274 24.1481 43.2256 24.0922 43.3189C23.9915 43.4883 23.9514 43.4148 23.8851 43.5524C23.863 43.5982 23.8587 43.6284 23.8235 43.6714C23.7807 43.7236 23.7456 43.7234 23.6944 43.7652C23.6388 43.8106 23.6512 43.8427 23.6117 43.8929C23.5147 44.0162 23.4856 43.8993 23.4397 44.139C23.4157 44.2651 23.4595 44.1968 23.3655 44.2618C23.1369 44.4199 23.2898 44.459 23.0068 44.5448L22.9887 44.8379L22.7782 44.851C22.7615 44.9876 22.7464 44.9815 22.5832 45.0183C22.5477 45.3443 22.4607 45.1995 22.3697 45.3207C22.3258 45.3976 22.3255 45.4809 22.2529 45.541L22.0812 45.7017C21.9769 45.8131 21.9752 45.701 21.9173 45.8736C21.8156 46.177 21.7838 45.9529 21.6961 46.1422C21.672 46.1946 21.6831 46.2074 21.6603 46.2577C21.5964 46.3983 21.5947 46.2844 21.4883 46.4088L21.4124 46.5463C21.4094 46.5499 21.404 46.5559 21.4007 46.5592C21.2966 46.661 21.2581 46.5445 21.2247 46.7849C21.0835 46.8478 21.1106 46.7611 21.0209 46.8935C20.9443 47.0069 20.9837 46.9566 20.8941 47.0429C20.8118 47.1222 20.8462 47.1353 20.795 47.2116C20.7499 47.2789 20.7094 47.2686 20.6237 47.3159C20.5805 47.4899 20.615 47.4981 20.4651 47.5797C20.3038 47.6674 20.3925 47.717 20.269 47.8232C20.1191 47.9528 20.1817 47.9844 20.0646 48.0518C19.9622 48.1105 20.0141 48.0153 19.9471 48.1593C19.9187 48.2209 19.9254 48.2468 19.8715 48.2927C19.7788 48.3713 19.8043 48.2997 19.739 48.3846C19.6938 48.4438 19.726 48.4555 19.6651 48.5228C19.6226 48.5696 19.5807 48.578 19.5423 48.6206C19.4998 48.6669 19.5014 48.6999 19.4563 48.7474C19.3897 48.8176 19.386 48.7883 19.3291 48.8447C19.2759 48.8975 19.286 48.924 19.2492 48.9717C19.1578 49.0903 19.2033 48.9951 19.1243 49.073C19.0698 49.1263 19.0588 49.2063 18.9885 49.2645L18.9544 49.2877C18.8453 49.3644 18.9155 49.2957 18.85 49.4142C18.8048 49.4961 18.6763 49.5576 18.6395 49.6386C18.5304 49.879 18.5886 49.7347 18.4461 49.8884C18.3986 49.9396 18.41 49.9667 18.3691 50.0219C18.2959 50.1213 18.2611 50.1059 18.1717 50.2579C18.0964 50.3866 18.0305 50.3393 17.972 50.4981C17.9201 50.6387 17.8184 50.5824 17.7525 50.7103C17.622 50.962 17.5517 50.8689 17.5176 51.0874C17.4751 51.1068 17.4282 51.1173 17.3493 51.129C17.3359 51.1914 17.3238 51.2604 17.2957 51.3075C17.2318 51.4139 17.2425 51.3458 17.1515 51.4139C17.0822 51.4658 17.0816 51.5594 16.9367 51.6831C16.8544 51.7533 16.8882 51.7645 16.8293 51.8209L16.6914 51.9278C16.5807 52.0988 16.7088 52.0562 16.4776 52.1759C16.4385 52.2833 16.4448 52.3757 16.3685 52.4323L16.2417 52.5025C16.1169 52.6063 16.0634 52.6868 15.9827 52.8161C15.9018 52.946 15.8636 52.8837 15.7974 52.989C15.7589 53.0498 15.785 53.0484 15.7321 53.1085C15.7043 53.1403 15.6588 53.1654 15.6271 53.1976C15.5401 53.2865 15.5913 53.3125 15.4795 53.3993C15.3269 53.5176 15.4086 53.4884 15.3152 53.6116C15.2232 53.7333 15.1911 53.6299 15.1298 53.7887C15.0713 53.9412 14.9809 53.9749 14.8725 54.0947C14.8447 54.1255 14.8625 54.1085 14.8297 54.137C14.6577 54.2858 14.573 54.4804 14.4004 54.6315C14.3532 54.6726 14.3606 54.6331 14.2729 54.7671C14.1953 54.8857 14.1611 54.842 14.0939 54.9461C14.0333 55.0392 14.0474 55.1051 13.9524 55.1825C13.8138 55.2953 13.8764 55.2013 13.7924 55.3713C13.7145 55.5294 13.6699 55.4277 13.5993 55.5566C13.4802 55.7738 13.498 55.6592 13.4243 55.7441C13.3357 55.8464 13.4347 55.8637 13.2678 55.9666C13.1041 56.0676 13.2109 56.0384 13.1185 56.1645C13.0516 56.2555 12.9927 56.2737 12.9295 56.3586C12.8866 56.4159 12.7889 56.4683 12.7548 56.5312C12.6544 56.7158 12.7495 56.6096 12.5808 56.7469C12.4972 56.815 12.5176 56.8865 12.4523 56.9635C12.374 57.0559 12.3988 57 12.3436 57.0477C12.2529 57.1265 12.3218 57.0788 12.2746 57.1688C12.2188 57.2748 12.1428 57.2215 12.0926 57.3429C12.0408 57.4689 12.0388 57.8605 12.1144 57.9536C12.1689 58.0207 12.2987 58.0542 12.379 58.0979C12.5142 58.1714 12.3827 58.1971 12.6568 58.2074C12.9402 58.2179 13.2728 58.2069 13.5619 58.2069C17.1525 58.2069 20.7763 58.176 24.3616 58.2294C24.9331 58.2378 25.0468 58.282 25.3152 57.9812C25.4219 57.8617 25.4199 57.9861 25.5083 57.8123C25.5785 57.6736 25.6056 57.7223 25.6943 57.617L25.8827 57.4458C25.9563 57.3843 25.9453 57.3101 26.0359 57.224C26.1099 57.1539 26.1524 57.1108 26.1621 57.0091L26.3572 56.9427L26.3662 56.6854C26.7353 56.6772 26.4552 56.5249 26.7794 56.513L26.8303 56.2613C27.1592 56.1865 26.9397 56.2456 27.0746 56.1032C27.1565 56.0166 27.0956 56.1067 27.202 56.0361L27.4597 55.75C27.5266 55.6431 27.5587 55.6253 27.7033 55.5888L27.6845 55.601C27.7377 55.2749 27.793 55.4651 27.9091 55.259C28.0352 55.0347 28.0125 55.3147 28.1419 54.9737C28.1982 54.8258 28.2323 54.918 28.3236 54.7996C28.3287 54.7931 28.3397 54.7711 28.3437 54.7641C28.4956 54.5021 28.5505 54.6934 28.5716 54.3969L28.773 54.3732C28.8496 54.2694 28.7871 54.322 28.8941 54.2467C28.9902 54.1791 28.9457 54.2495 28.9898 54.1216C29.0732 53.8785 29.0263 54.0886 29.2505 53.8406C29.4091 53.6647 29.3285 53.861 29.4168 53.675C29.5058 53.4874 29.5239 53.5684 29.6386 53.4598L29.8571 53.2135C29.9793 52.9527 29.9916 53.1251 30.073 52.9869C30.1633 52.8339 30.01 52.8297 30.2235 52.7282C30.3928 52.6477 30.2744 52.6451 30.4062 52.5726L30.4474 52.5544C30.4517 52.5523 30.4664 52.5528 30.4698 52.5453C30.4731 52.5376 30.4855 52.5397 30.4932 52.5362C30.5334 52.4779 30.5344 52.4155 30.5581 52.3621C30.5966 52.2768 30.5822 52.3165 30.6759 52.2737C30.8335 52.2017 30.7284 52.2386 30.7974 52.1633C30.8904 52.0616 30.8519 52.1528 30.9396 52.0814C30.9754 52.0524 30.9834 51.9991 31.0232 51.9493L31.239 51.7273C31.406 51.5556 31.2488 51.7596 31.4455 51.4974C31.4836 51.4466 31.5107 51.4389 31.5673 51.3952C31.6938 51.2974 31.5519 51.3563 31.7868 51.1737C31.9919 51.0141 32.0562 50.8658 32.0933 50.8305C32.1749 50.7531 32.1719 50.8057 32.2502 50.7503C32.3141 50.7054 32.2937 50.6591 32.3265 50.6032C32.4021 50.4738 32.4376 50.5711 32.4958 50.4193C32.553 50.2703 32.4978 50.3335 32.6344 50.2488C32.7528 50.1754 32.6912 50.177 32.7685 50.0855L33.079 49.7871C33.1332 49.7352 33.149 49.6629 33.1918 49.6072C33.2634 49.5141 33.2858 49.5469 33.3467 49.4851C33.4541 49.3752 33.3133 49.4292 33.4842 49.3237C33.5595 49.2774 33.515 49.3326 33.5722 49.2435C33.7482 48.9698 33.6817 49.1747 33.7914 49.0229C33.8707 48.9135 33.7757 48.9478 33.9092 48.8487C34.0544 48.7408 33.9644 48.8131 34.0417 48.6781C34.111 48.557 34.1391 48.6681 34.2244 48.5509C34.2766 48.4793 34.2284 48.4339 34.3214 48.3657L34.5714 48.1673C34.8126 47.9907 34.5971 48.0768 34.7859 47.9425C34.8919 47.8674 34.8498 47.8887 34.9187 47.7779C34.997 47.6515 35.008 47.7093 35.0837 47.6382C35.1529 47.5725 35.1134 47.5568 35.2142 47.4705L35.5283 47.1784C35.5989 47.0892 35.5357 47.1105 35.6435 47.0237C35.7435 46.943 35.7124 46.9798 35.7887 46.8708C35.863 46.765 35.9011 46.7866 35.955 46.7302C36.0145 46.6677 35.9821 46.6355 36.0734 46.5531C36.3749 46.2802 36.0908 46.4621 36.3565 46.2622C36.5191 46.1401 36.311 46.0914 36.6573 45.9604C36.833 45.8938 36.6827 45.8856 36.8989 45.8902C36.9993 45.9978 36.9782 46.0746 36.9742 46.2411L36.9738 48.9881C36.9822 48.9934 36.9899 49.0012 36.9956 49.0063C37.2325 49.2175 37.1883 49.2615 37.2288 49.555C37.2593 49.7754 37.3436 49.5855 37.4065 49.7529C37.5089 50.0257 37.355 50.021 37.5263 50.1047C37.6511 50.1658 37.629 50.2212 37.6594 50.3314C37.7116 50.5206 37.7786 50.3973 37.8572 50.5744C37.9787 50.8476 37.9676 50.6008 38.0884 50.7999C38.2109 51.001 38.0613 50.7554 38.2959 50.9844L38.7248 51.3154C38.8021 51.3697 38.8028 51.3449 38.8811 51.3963C39.1401 51.5666 39.0096 51.4427 39.1628 51.5708C39.291 51.6782 39.3455 51.597 39.5155 51.7011C39.6209 51.7657 39.5125 51.7465 39.7035 51.7797C39.7899 51.7947 39.8334 51.7898 39.9123 51.822C40.1144 51.9055 39.8959 51.9013 40.273 51.9327C40.8198 51.9783 40.4718 52.0609 41.1413 52.0658C44.732 52.0917 48.4133 52.0765 52.008 52.0765C52.971 52.0765 60.4474 52.0298 60.6813 52.1163C60.9041 52.1991 60.8144 52.5937 60.8134 52.8068L60.8131 55.0731C60.8154 55.5463 60.88 57.8434 60.799 58.111C60.7813 58.118 60.6762 58.1505 60.6649 58.1555C60.6 58.1849 60.6575 58.1515 60.608 58.1889C60.513 58.2609 60.5739 58.2864 60.3012 58.2895C60.0469 58.2925 59.7852 58.2878 59.5299 58.2878L42.6471 58.2883C42.2783 58.2881 38.583 58.3066 38.158 58.2074C37.637 58.0858 37.5979 58.1531 37.4048 58.2546C37.3429 58.2871 37.3342 58.2764 37.2937 58.2956C37.1187 58.3786 37.2649 58.3475 37.1642 58.4425L36.9973 58.4537C36.9835 58.6471 36.918 58.9369 37.017 59.0993L37.2676 59.2749C37.6524 59.4625 37.9589 59.415 38.4682 59.4153L61.9334 59.4115C62.1602 59.3961 62.1177 59.3612 62.2449 59.3088C62.4798 59.2122 62.3279 59.3463 62.4962 59.1582C62.5972 59.0452 62.6176 59.1105 62.6233 58.9304L62.6354 56.6388C62.64 55.7692 62.6558 54.8972 62.6581 54.0219C62.6605 53.1675 62.7096 52.2499 62.6601 51.4031C62.6518 51.2558 62.6193 51.2424 62.5159 51.1638C62.2787 50.984 62.4711 51.0516 62.3041 50.9896C62.0782 50.9058 61.8179 50.9012 61.5021 50.9007L42.814 50.8541C42.6922 50.8537 41.1454 50.867 41.0443 50.8441C40.9406 50.8205 41.0262 50.8796 40.9593 50.8085C40.8563 50.8184 40.4912 50.7945 40.3477 50.7213C40.2222 50.6574 40.3513 50.6932 40.1797 50.6488C39.9261 50.5833 40.0489 50.588 39.8973 50.5012C39.8176 50.4558 39.7832 50.4865 39.6788 50.3693L39.6206 50.2937C39.5014 50.2399 39.1585 49.8392 39.1237 49.7709C39.0658 49.7366 38.9651 49.5642 38.935 49.5144C38.8814 49.4255 38.8744 49.2954 38.8731 49.1857C38.8704 48.9366 38.8731 48.6866 38.8731 48.4372L38.8279 27.0114C38.8272 26.5782 38.7486 26.5263 38.9698 26.3839C39.1926 26.4201 39.1682 26.4807 39.3231 26.5546C39.4191 26.6004 39.463 26.5883 39.5239 26.625C39.6423 26.6961 39.4546 26.6594 39.6892 26.7284L39.8468 26.7752C39.8548 26.7789 39.8765 26.7906 39.8839 26.7948C39.9451 26.8299 39.9328 26.8301 39.9662 26.8512C40.1569 26.9717 40.0827 26.846 40.2152 26.9775C40.2747 27.0367 40.1941 26.9948 40.2961 27.0425C40.3647 27.0746 40.3286 27.0488 40.3905 27.0722C40.5273 27.1237 40.4069 27.1061 40.5608 27.1642C40.6184 27.1861 40.7479 27.2023 40.787 27.2175C40.8797 27.2533 40.8305 27.2848 40.9265 27.3279C40.9921 27.3574 41.0654 27.3492 41.1454 27.3854L42.8709 28.678C42.9847 28.7517 42.9837 28.711 43.0513 28.7612C43.1272 28.8179 43.0633 28.8141 43.156 28.8974C43.3407 29.0637 43.3146 29.0794 43.4023 29.1477C43.5893 29.2941 43.4217 29.2253 43.6375 29.3561C43.6429 29.3591 43.6512 29.3631 43.6562 29.3664C43.6613 29.3699 43.6686 29.3743 43.673 29.3781C43.7466 29.4354 43.6766 29.4138 43.8061 29.4978L44.1722 29.8447C44.2655 29.9694 44.1578 29.8802 44.3167 29.9602C44.5041 30.0547 44.2873 30.0262 44.5028 30.157L44.6339 30.2685C44.6674 30.3137 44.6155 30.2985 44.7561 30.3766C44.8846 30.4479 44.7772 30.3488 44.8371 30.4283C44.8806 30.4861 44.8461 30.5305 44.8913 30.6011C44.9749 30.7314 44.9535 30.6039 45.0221 30.7204C45.08 30.8191 44.9967 30.8 45.1078 30.8795C45.2091 30.9522 45.1636 30.8397 45.2439 30.9857C45.4333 31.33 45.3306 31.0879 45.4644 31.2547C45.5304 31.3365 45.4849 31.3435 45.5377 31.4132C45.6046 31.5017 45.617 31.4458 45.6806 31.5232C45.798 31.6661 45.6348 31.6401 45.8412 31.8125L45.9409 31.9477C46.0065 32.06 46.0189 32.0315 46.0711 32.0726C46.125 32.115 46.128 32.1533 46.1424 32.2226C46.1989 32.4974 46.2846 32.3486 46.3525 32.4979C46.4355 32.6796 46.2979 32.6637 46.4883 32.8314C46.6379 32.9633 46.5619 33.0433 46.6433 33.143C46.7122 33.2279 46.7128 33.1418 46.7671 33.262C46.8139 33.3659 46.8149 33.5521 46.8584 33.626C46.9042 33.7032 46.9233 33.6767 46.9685 33.757C46.9912 33.7972 47.0565 34.033 47.0595 34.0674C47.3667 34.1506 47.2061 34.3983 47.3519 34.567C47.5156 34.7562 47.4296 34.9478 47.5453 35.1071C47.714 35.3386 47.6698 35.3852 47.7167 35.6635C47.7615 35.9306 47.8786 35.8918 47.8984 36.1928C47.9127 36.4129 47.9198 36.6242 47.9616 36.8379C48.0024 37.048 48.074 37.2087 48.0864 37.4314C48.1212 38.0498 48.2209 39.6904 48.0325 40.2309L47.9914 40.3208C47.8662 40.579 47.9265 40.9734 47.8468 41.2428C47.809 41.3701 47.7628 41.3724 47.7364 41.5209C47.6728 41.8774 47.5219 42.1419 47.4958 42.3377C47.4801 42.4547 47.4855 42.5534 47.444 42.6554C47.3881 42.7927 47.3299 42.7662 47.2877 42.867C47.2512 42.9548 47.2643 43.0792 47.2425 43.1732C47.204 43.3412 47.1873 43.2829 47.0689 43.3667C47.0565 43.4443 47.0428 43.5463 47.0173 43.6174C46.9728 43.7421 46.9213 43.7168 46.8701 43.7889C46.8333 43.8408 46.8223 43.9603 46.8012 44.0223C46.751 44.1687 46.7303 44.1095 46.6573 44.2043C46.5857 44.2974 46.6101 44.4433 46.5158 44.5278C46.4238 44.6101 46.493 44.5053 46.4278 44.6049C46.3388 44.7404 46.4545 44.8803 46.2554 44.9712C46.1072 45.0391 46.2267 45.1535 46.0972 45.2388C45.9553 45.3324 45.9961 45.2295 45.955 45.4325C45.9165 45.621 45.7599 45.5593 45.7335 45.7246C45.7284 45.7567 45.7301 45.8131 45.7278 45.8484C45.524 45.9583 45.5662 45.8238 45.5053 46.0238C45.4899 46.0743 45.4949 46.0994 45.4467 46.1422C45.265 46.3031 45.4497 46.0626 45.2597 46.3384C45.2148 46.4034 45.2101 46.3819 45.1569 46.4287C45.0485 46.5244 45.1047 46.5901 45.0392 46.6535C44.9438 46.7456 44.9418 46.6582 44.8371 46.839C44.7571 46.977 44.7404 46.8825 44.6483 47.0048C44.5915 47.0806 44.6483 47.0441 44.5657 47.1136C44.464 47.1992 44.467 47.2296 44.3853 47.315C44.3087 47.3954 44.2579 47.3999 44.2 47.4838C44.1223 47.5968 44.1963 47.5194 44.0929 47.5816L43.7245 47.9741C43.6308 48.0772 43.6439 48.0101 43.5385 48.1547C43.4642 48.2569 43.42 48.1923 43.3501 48.2742C43.1312 48.5303 43.2811 48.3469 43.1266 48.4899C43.0844 48.5289 43.076 48.5621 43.0392 48.5946L42.807 48.7581C42.7314 48.8215 42.7759 48.7598 42.707 48.8335L42.8619 48.8758C42.9114 48.8821 42.9566 48.8823 43.0081 48.8863C43.4903 48.924 43.4909 49.0079 43.8272 49.0297C44.1458 49.0503 44.4884 49.036 44.7715 49.1244C45.1385 49.239 45.9694 49.1874 46.3843 49.2159C46.8233 49.2461 47.198 49.32 47.5939 49.3279C48.2273 49.3406 49.8036 49.3658 50.2995 49.272C50.6722 49.2016 51.1584 49.2086 51.6075 49.1916C52.3677 49.1626 52.2974 49.0964 52.7896 49.0479C52.9803 49.0292 53.249 49.054 53.4093 48.9956C53.6519 48.9071 53.9785 48.895 54.284 48.8601C54.4312 48.8433 54.4713 48.8625 54.5262 48.7909C54.6152 48.6742 54.4636 48.6655 54.3833 48.5951L54.1073 48.3689C53.9634 48.2365 53.7841 48.0934 53.6679 47.9463C53.6127 47.8763 53.5592 47.8791 53.5063 47.7996L53.2922 47.5816C53.2882 47.5779 53.2822 47.5725 53.2778 47.569L52.9854 47.3072C52.8505 47.2095 52.8786 47.2134 52.7782 47.1026C52.7183 47.0364 52.6675 47.0315 52.6203 46.9578C52.6029 46.9307 52.5932 46.8935 52.5761 46.8717C52.4821 46.7503 52.4627 46.8434 52.367 46.6404C52.2971 46.4925 52.3352 46.5936 52.2278 46.5071C52.1388 46.4355 52.1923 46.4179 52.104 46.3342C51.9862 46.2224 51.9585 46.1136 51.842 46.0273C51.7768 45.9789 51.758 45.9536 51.7259 45.8774C51.6627 45.7277 51.5559 45.6975 51.4927 45.5527C51.48 45.5235 51.4873 45.5272 51.4669 45.4985C51.4288 45.4442 51.4689 45.4942 51.4241 45.4552C51.3381 45.3799 51.3173 45.3095 51.2722 45.2115C51.2156 45.0884 51.2133 45.1785 51.1253 45.0571C51.0808 44.9958 51.0711 44.9401 51.0604 44.8622C50.9416 44.8353 50.9342 44.8302 50.8663 44.7953L50.8466 44.5441C50.7432 44.5352 50.707 44.5228 50.6394 44.5107L50.6083 44.0812C50.3979 43.998 50.4253 43.9888 50.4116 43.7732C50.2429 43.6946 50.5685 43.8267 50.3366 43.7521C50.2219 43.7154 50.2095 43.6394 50.1974 43.5498C50.1814 43.4291 50.1807 43.3007 50.1646 43.1753C49.988 43.1009 50.0234 43.125 49.99 42.9321C49.9585 42.7501 50.0047 42.7552 49.8812 42.6336C49.8036 42.5569 49.7775 42.4612 49.7598 42.3529C49.734 42.1962 49.7932 42.1347 49.6684 42.032C49.4777 41.8751 49.555 41.5705 49.5255 41.3801C49.5001 41.2173 49.3542 41.1925 49.3358 40.7963C49.2917 39.856 49.1852 40.2504 49.1421 39.8144C49.0772 39.1569 49.0722 37.9298 49.1488 37.2695C49.1699 37.0873 49.2488 37.127 49.2789 36.9876C49.3455 36.6782 49.2639 36.2293 49.4399 35.9861C49.5794 35.7929 49.5292 35.5515 49.5536 35.3276C49.5727 35.155 49.6688 35.2032 49.731 35.0979C49.7782 35.0182 49.7591 34.8909 49.8227 34.7901C49.8929 34.679 49.9471 34.6785 49.9665 34.5298C50.0181 34.1373 50.1282 34.2117 50.1877 33.9279C50.2101 33.8208 50.2349 33.7118 50.3122 33.6309C50.5327 33.4007 50.2697 33.2545 50.61 33.1193C50.619 32.9993 50.5916 32.8319 50.7164 32.7463C50.9265 32.6019 50.779 32.6377 50.8917 32.4646C50.9289 32.4076 50.9175 32.4366 50.9637 32.405C51.0945 32.3156 51.0674 32.1695 51.1919 32.0717C51.2862 31.9978 51.2735 31.9002 51.3354 31.7924C51.3719 31.7288 51.4214 31.7115 51.4666 31.6542C51.5268 31.5774 51.5067 31.5152 51.5482 31.4481C51.5837 31.3906 51.6506 31.3711 51.6978 31.326C51.7697 31.2345 51.7045 31.1562 51.8156 31.0846L51.9524 30.9901C52.0317 30.894 52.0521 30.9094 52.1167 30.847C52.1893 30.7766 52.1442 30.7162 52.2 30.6446C52.2716 30.5534 52.2128 30.6425 52.2977 30.5801C52.4065 30.5001 52.3432 30.4531 52.4935 30.3413C52.709 30.1806 52.4627 30.1207 52.813 30.0779C52.8408 29.8933 52.9532 29.8718 53.0744 29.7139C53.1399 29.6283 53.1841 29.6576 53.251 29.5832C53.339 29.4854 53.3594 29.5027 53.4234 29.4475C53.5709 29.3196 53.331 29.3647 53.6509 29.2836C53.7125 29.1144 53.9249 28.9523 54.0578 28.8658C54.1357 28.8148 54.0745 28.8929 54.129 28.79C54.1341 28.7809 54.1377 28.7482 54.1464 28.7285C54.4723 28.6197 54.2204 28.7058 54.4064 28.5687L54.7223 28.3765C54.7256 28.3725 54.7286 28.3657 54.7317 28.3615C54.8361 28.2069 55.2674 27.8822 55.4206 27.8114L56.139 27.3447C56.1989 27.3192 56.2183 27.2685 56.302 27.2273L56.4679 27.1169C56.5476 27.0481 56.6503 27.0561 56.756 27.0065C56.8176 26.9775 56.7647 26.9892 56.8591 26.9396L57.1408 26.8124C57.2797 26.7258 57.2583 26.7801 57.3954 26.6882L57.6173 26.564C57.6899 26.5195 57.727 26.4617 57.8351 26.4255C58.0623 26.3488 57.9255 26.3857 58.0817 26.2791C58.1219 26.2517 58.1239 26.2543 58.1627 26.2374C58.3896 26.1373 58.4039 26.0547 58.5227 25.9785C58.6147 25.9196 58.597 25.9635 58.6666 25.9165C58.7315 25.8723 58.6639 25.8985 58.7429 25.8344L59.2368 25.5198C59.3874 25.4223 59.305 25.4482 59.4058 25.361C59.4968 25.2822 59.4951 25.3259 59.5453 25.292C59.6768 25.2031 59.7698 25.0349 59.9401 24.9365C59.9957 24.9042 59.985 24.917 60.0211 24.8656C60.1104 24.7383 60.1282 24.772 60.2152 24.6885C60.2526 24.6525 60.2506 24.624 60.2928 24.5783L60.5655 24.3215C60.7375 24.2092 60.6398 24.2682 60.7013 24.104C60.7194 24.0551 60.7365 24.0397 60.7857 24.013C61.0627 23.8624 60.7853 23.9005 61.1055 23.795L61.1296 23.5524C61.3535 23.4944 61.3053 23.5651 61.3545 23.3955C61.393 23.2636 61.3973 23.2683 61.5395 23.2138L61.5961 22.9401C61.6392 22.9214 61.6891 22.9139 61.7687 22.9031C61.7985 22.7034 61.7761 22.6795 61.9752 22.6028C62.0157 22.3369 61.9725 22.2653 62.2138 22.1408C62.2211 22.0241 62.188 21.9133 62.3155 21.8361C62.5333 21.7039 62.3627 21.6653 62.4731 21.4195C62.5273 21.2993 62.6293 21.3189 62.6514 21.1713C62.6685 21.0583 62.6571 20.9302 62.6942 20.8254C62.7381 20.7005 62.8415 20.7781 62.8686 20.5854C62.9034 20.34 62.8743 20.0869 62.9579 19.889C63.0058 19.7754 63.0603 19.7644 63.0847 19.6109C63.1557 19.1651 63.1135 18.223 63.1028 17.7577C63.0844 16.9498 62.879 17.3222 62.8592 16.4331C62.7816 16.4869 62.7936 16.5122 62.7826 16.5438C62.7521 16.6315 62.7692 16.6998 62.5838 16.7122C62.5547 17.0974 62.5059 16.878 62.354 17.0738C62.3523 17.0759 62.3205 17.1311 62.3148 17.1376C62.1746 17.2918 62.1887 17.0735 62.107 17.434C62.0528 17.4593 61.9946 17.4705 61.9146 17.4831L61.9042 17.6415L61.7062 17.6878L61.7025 17.8747C61.4947 17.8854 61.4686 17.9516 61.4686 18.0849C61.3973 18.1123 61.3983 18.0985 61.3585 18.1121C61.1577 18.1804 61.3257 18.2445 61.0353 18.2499L61.0339 18.3888C60.9479 18.3914 60.9145 18.3949 60.8519 18.4143C60.6154 18.4875 60.792 18.5418 60.3835 18.5661C60.3584 18.7679 60.2797 18.6578 60.166 18.7448C60.1603 18.7492 60.1553 18.7551 60.1506 18.76C60.1439 18.7665 60.1148 18.8262 60.1051 18.8377C59.6935 18.8646 60.0599 18.9934 59.5296 19.0304C59.5229 19.036 59.5175 19.0447 59.5135 19.0493C59.3278 19.2673 59.1454 19.1043 59.0671 19.2128L59.0206 19.2743C58.9674 19.3223 59.0628 19.2879 58.9289 19.3155C58.8583 19.3303 58.7282 19.3251 58.6452 19.3572C58.5488 19.3941 58.6047 19.4224 58.4488 19.4533C58.3588 19.4711 58.2681 19.4654 58.1938 19.49C57.9706 19.5635 58.1473 19.603 57.7234 19.6273C57.3486 19.6488 57.5788 19.7122 57.2847 19.7576C57.1161 19.7838 56.7885 19.7691 56.6583 19.7969C56.5041 19.8299 56.6208 19.8731 56.1945 19.9094C55.6465 19.9559 54.2351 19.9588 53.7131 19.883C53.4883 19.8502 53.5746 19.7981 53.2119 19.7859C52.9238 19.7763 52.8769 19.7894 52.6779 19.7181C52.4165 19.6245 52.4399 19.6594 52.1519 19.6147C51.9467 19.5829 52.1023 19.5258 51.7336 19.4687C51.6781 19.4601 51.6603 19.4582 51.6095 19.4407L51.5288 19.4023C51.1788 19.2096 51.1055 19.4516 50.8881 19.1754L50.6645 19.1632C50.6317 19.1296 50.625 19.0987 50.6184 19.0355C50.4741 19.0283 50.3651 19.0145 50.2817 18.964C50.1248 18.8685 50.3349 18.8755 49.9977 18.8587C49.9649 18.7829 49.9983 18.8402 49.9682 18.7963C49.9314 18.7427 49.9428 18.7567 49.9013 18.723C49.7645 18.7186 49.6269 18.7174 49.5336 18.6933L49.5302 18.556C49.3475 18.5516 49.3362 18.5275 49.3194 18.3998C49.0173 18.3886 49.2037 18.3603 49.0598 18.2318L48.7954 18.0723C48.6449 18.0103 48.7436 18.0356 48.6492 17.9792C48.5686 17.931 48.5743 17.9598 48.4966 17.9217C48.3932 17.8709 48.4488 17.8644 48.3695 17.8277C48.3578 17.8223 48.2293 17.7881 48.2052 17.7788C48.0794 17.7304 47.7799 17.5435 47.6139 17.4941C47.4915 17.4579 47.4175 17.3828 47.3145 17.3507C47.1027 17.2845 47.1355 17.3631 46.9698 17.2382C46.835 17.1367 46.8049 17.2085 46.6469 17.1119C46.4559 16.995 46.414 17.0621 46.2892 17.0076C46.2538 16.9919 46.2377 16.9456 46.1624 16.9145C46.0992 16.8883 46.0503 16.889 45.969 16.8778C45.5447 16.8188 45.8981 16.8039 45.4728 16.7021C45.3135 16.664 45.4363 16.6642 44.9535 16.5482C44.8324 16.5192 44.7681 16.4617 44.6139 16.4371C44.4633 16.4132 44.297 16.4135 44.1427 16.4074C44.0159 16.2846 44.1468 16.2832 43.851 16.272C43.5512 16.2605 43.4605 16.1742 43.2109 16.1244C43.0198 16.086 42.8495 16.1014 42.6758 16.0343C42.5885 16.0006 42.641 16.0027 42.5116 15.9824C42.3938 15.9639 42.2479 15.9625 42.1207 15.9527C41.8179 15.9288 41.6593 15.8491 41.4442 15.8313C41.0289 15.7967 39.9398 15.8081 39.6614 15.6872C39.6557 15.6846 39.649 15.68 39.6433 15.6774C39.5091 15.6175 39.2237 15.6367 39.0357 15.6343C38.9122 15.6327 38.2049 15.6072 38.152 15.6481C38.149 15.6505 38.1409 15.6577 38.1373 15.6605L38.0877 15.6928C37.7177 15.8645 36.4984 15.7539 36.0647 15.8261C35.9302 15.8486 35.9851 15.8699 35.8777 15.8965C35.6123 15.9625 35.3333 15.951 35.0556 15.9665C34.7102 15.9854 34.8685 16.0315 34.6273 16.0799C34.4472 16.1159 34.3181 16.0907 34.1551 16.1613C34.1545 16.2619 34.1136 16.5784 34.0782 16.6743C34.0049 16.8726 33.9497 16.9145 33.9396 17.1741C33.9105 17.9278 33.8955 18.705 33.9192 19.4638C33.9373 20.0292 33.9012 19.7866 34.0614 20.2291C34.1525 20.4804 34.1123 20.5264 34.1598 20.7409C34.2003 20.9245 34.2093 20.8153 34.296 20.9276C34.3847 21.0427 34.3378 21.2967 34.4047 21.4452C34.459 21.5652 34.5235 21.6136 34.5777 21.7708L34.6457 21.8588C34.92 22.0372 34.7203 22.0929 34.8377 22.2812C34.8719 22.3359 34.9632 22.3946 34.9963 22.473C35.1268 22.785 35.166 22.6344 35.2349 22.8657C35.2871 23.0416 35.27 22.9523 35.3825 23.0442C35.4845 23.1274 35.4229 23.1789 35.5002 23.2678C35.5718 23.3494 35.5903 23.2905 35.6609 23.4336C35.7582 23.631 35.8737 23.4954 35.9145 23.8212L36.0972 23.831C36.1249 24.0855 36.2404 24.0219 36.318 24.159C36.4221 24.343 36.4492 24.2523 36.5235 24.3477C36.5375 24.3657 36.5606 24.4413 36.58 24.4726C36.6315 24.5568 36.7169 24.5978 36.7758 24.6658C36.8129 24.7086 36.8015 24.6965 36.8383 24.7187C36.8781 24.7426 36.8594 24.7234 36.8972 24.7463C37.0418 24.8333 36.9919 25.0415 36.9909 25.1647C36.9896 25.3827 36.9906 25.601 36.9906 25.819C36.9906 31.4811 36.9578 37.1439 36.9922 42.806C36.9943 43.1225 36.9146 43.0207 36.7968 43.1842C36.7932 43.1896 36.7898 43.1959 36.7865 43.2013L36.746 43.2904C36.663 43.4492 36.6546 43.3449 36.5539 43.478C36.5425 43.4932 36.407 43.6745 36.3756 43.6361C36.3525 43.6073 36.3833 43.8752 36.1203 43.9175C36.0731 44.2309 36.0373 44.1049 35.8817 44.2459C35.8476 44.277 35.8405 44.306 35.8054 44.3329C35.6799 44.4288 35.787 44.2801 35.6291 44.5177C35.5708 44.6054 35.535 44.5741 35.4527 44.6976C35.3651 44.8295 35.3517 44.7778 35.263 44.8613C35.2068 44.9142 35.2423 44.9116 35.1757 44.9677C34.9425 45.1637 35.0505 45.145 34.9307 45.2386C34.8113 45.3319 34.5807 45.6825 34.5014 45.7331C34.2953 45.8643 34.4111 45.8928 34.2518 46.0035L34.0614 46.1716C33.8352 46.3574 34.0216 46.4037 33.7877 46.5152C33.7064 46.5541 33.7104 46.6015 33.6542 46.6633C33.5886 46.7353 33.5211 46.7646 33.4886 46.8595C33.4782 46.8895 33.4679 46.9171 33.4581 46.9678C33.2591 46.9821 33.3119 46.9545 33.2664 47.0759C33.2356 47.1585 33.2534 47.1812 33.1711 47.2322C32.9783 47.3512 33.0165 47.398 32.9127 47.4509C32.9084 47.453 32.8947 47.4654 32.8917 47.4609L32.7414 47.6805C32.6257 47.7498 32.6949 47.6642 32.626 47.7638C32.5811 47.8288 32.637 47.7998 32.5648 47.8639C32.4259 47.9867 32.4627 47.8193 32.3921 48.0536C32.3784 48.0995 32.3774 48.1322 32.3299 48.1645L32.2265 48.2096C32.2245 48.2073 32.1304 48.365 32.027 48.4435C31.9387 48.5107 31.9845 48.4903 31.932 48.5691C31.8654 48.6695 31.9153 48.596 31.8206 48.6477C31.7453 48.6889 31.6971 48.8096 31.6255 48.8648C31.5064 48.9567 31.5302 48.9698 31.5151 49.1158C31.2354 49.1331 31.3652 49.1071 31.2825 49.2603C31.2233 49.3705 31.1748 49.3242 31.1039 49.4395C30.964 49.6676 30.8723 49.5819 30.8459 49.8851L30.6578 49.8912C30.6468 50.0977 30.6431 50.0596 30.4745 50.1585L30.2292 50.3665C30.1158 50.5531 30.2486 50.4518 30.0495 50.613C29.8876 50.7442 30.0515 50.6888 29.8016 50.8195C29.7782 50.9182 29.7808 51.0298 29.7434 51.1C29.5205 51.1159 29.5192 51.1119 29.5078 51.3811L29.3485 51.3835C29.3375 51.569 29.3863 51.561 29.1243 51.5757C29.0454 51.8347 28.9955 51.6249 28.9028 51.8426C28.8312 52.0115 28.7509 51.9572 28.6716 52.1055C28.6204 52.2012 28.6412 52.1619 28.5525 52.233C28.4742 52.2957 28.497 52.2884 28.4458 52.3654C28.3688 52.4809 28.3855 52.4166 28.3076 52.4833C28.2333 52.5464 28.2654 52.5598 28.2216 52.6358C28.1687 52.7275 28.169 52.6849 28.0874 52.7469C27.9957 52.8166 28.0396 52.8213 27.9884 52.8908C27.9234 52.9789 27.8963 52.9368 27.8418 52.9909C27.796 53.0362 27.7946 53.1059 27.7565 53.1499C27.6782 53.2411 27.6862 53.1628 27.6072 53.2498C27.5514 53.3111 27.5969 53.3263 27.5075 53.3941C27.3904 53.4828 27.3901 53.4079 27.3422 53.6767C27.2057 53.7066 27.1813 53.7267 27.114 53.8149C27.0501 53.8989 27.0093 53.8727 26.9461 53.9763C26.8778 54.0886 26.8072 54.1157 26.7356 54.2065L26.4405 54.5611C26.3304 54.6789 26.3729 54.5629 26.3056 54.6778C26.2789 54.7236 26.2789 54.7765 26.2374 54.8216C26.1966 54.8661 26.1457 54.871 26.1042 54.9131C26.0406 54.9772 26.0731 54.9849 26.0323 55.0548C25.9824 55.1397 25.8797 55.1816 25.8151 55.2724C25.7097 55.42 25.7074 55.3067 25.6003 55.4899C25.5404 55.5923 25.0612 56.0267 24.9652 56.1942C24.8528 56.3904 24.8347 56.2391 24.7578 56.4239C24.6771 56.6173 24.6376 56.5305 24.5443 56.6458C24.4891 56.7134 24.5302 56.7022 24.4519 56.7719C24.4218 56.7988 24.3653 56.8433 24.3285 56.8716C24.2287 56.9485 24.2803 56.8999 24.1702 56.9539C23.9099 57.0816 23.8838 57.0606 23.5227 57.0603C22.2091 57.0591 16.052 57.1155 14.901 57.0308C14.7691 56.8084 14.6523 56.8498 14.7835 56.5425C14.8464 56.3951 14.9083 56.4332 14.9655 56.3628C15.0653 56.2393 14.9475 56.2849 15.1261 56.1649C15.255 56.0786 15.1894 56.0662 15.269 55.9687C15.3704 55.8445 15.343 55.9687 15.443 55.7867C15.5123 55.6611 15.5478 55.6864 15.6237 55.6057C15.7064 55.5177 15.6455 55.5028 15.7676 55.4209C15.9714 55.2836 15.8208 55.3933 15.9232 55.2359C16.0256 55.0787 16.0142 55.2639 16.0928 55.0518C16.1109 55.0029 16.1193 54.9674 16.1587 54.925C16.215 54.8644 16.2216 54.8836 16.2564 54.8537C16.3475 54.7753 16.2799 54.8116 16.3317 54.7384C16.3946 54.6495 16.3782 54.6979 16.4271 54.6673C16.4974 54.6233 16.5392 54.5321 16.6105 54.4871C16.7286 54.4125 16.7637 54.2876 16.847 54.1952C16.9273 54.1063 16.9765 53.992 17.0746 53.9269C17.2746 53.7941 17.1545 53.8257 17.2914 53.6879C17.2974 53.6818 17.3168 53.6661 17.3235 53.6608L17.4694 53.5097C17.5049 53.4676 17.4721 53.5052 17.5136 53.4673C17.6133 53.3766 17.6159 53.2503 17.7247 53.1691C17.8689 53.0613 17.7859 53.0905 17.8826 52.9794C17.9924 52.8533 17.9837 52.9703 18.0573 52.8C18.1363 52.6169 18.1132 52.7172 18.2266 52.6101C18.2875 52.5525 18.2922 52.4845 18.3635 52.4248C18.4434 52.3577 18.4133 52.4215 18.4705 52.3355C18.4903 52.3058 18.4976 52.2634 18.5177 52.2274C18.5903 52.0943 18.6295 52.1675 18.7088 52.0618L18.8794 51.8763C18.9567 51.794 18.9072 51.7418 19.0173 51.6649C19.1913 51.543 19.0755 51.6642 19.1802 51.4775C19.2481 51.3561 19.2987 51.4136 19.3643 51.3035L19.5202 51.1049C19.5938 51.0282 19.5931 51.0029 19.6058 50.8827L19.7875 50.8525C19.8046 50.6937 19.8377 50.6958 19.9498 50.6125C20.0435 50.5428 20.3048 50.1789 20.5099 50.0238C20.5913 49.9623 20.4243 50.0296 20.5829 49.9847L20.5866 49.9852Z" fill="white"/>
</svg>
