<svg width="27" height="36" viewBox="0 0 27 36" fill="none" xmlns="http://www.w3.org/2000/svg">
<path d="M24.0849 12.6499C22.6314 11.2744 22.6314 8.44728 22.6314 7.24011V5.88093V4.85428V1H18.3801L18.3802 5.88093V7.24004C18.3802 8.44728 18.3802 11.2742 16.9267 12.6499C16.7722 12.7961 16.6278 12.9428 16.4923 13.0902H13.7747C13.6529 12.3982 13.0394 11.8696 12.301 11.8696H5.66311C4.92478 11.8696 4.31127 12.3982 4.18948 13.0902H1L3.34488 35.5754H16.9056H24.1062C25.1505 35.5754 26 34.7402 26 33.7136V27.9716V26.9449V21.5555V20.5287V16.4827C26.0001 15.1233 25.3737 13.8696 24.0849 12.6499ZM21.5869 2.02673V4.85428H19.4246L19.4245 2.02673H21.5869ZM15.0147 33.818C15.0154 33.8292 15.0165 33.8402 15.0173 33.8514C15.019 33.8749 15.0211 33.8983 15.0237 33.9214C15.0251 33.9343 15.027 33.9468 15.0286 33.9596C15.0316 33.9811 15.0347 34.0026 15.0384 34.0239C15.0406 34.0368 15.0429 34.0496 15.0454 34.0624C15.0496 34.0837 15.0541 34.1047 15.0589 34.1257C15.0617 34.1379 15.0644 34.15 15.0675 34.1621C15.0732 34.1849 15.0796 34.2073 15.0863 34.2296C15.0891 34.2394 15.0918 34.2494 15.0948 34.2591C15.1048 34.2911 15.1155 34.3228 15.1271 34.354C15.1278 34.3557 15.1286 34.3575 15.1291 34.3591C15.1402 34.3885 15.152 34.4174 15.1646 34.446C15.169 34.4561 15.1739 34.4661 15.1785 34.4762C15.1876 34.4962 15.1971 34.5161 15.2069 34.5357C15.209 34.5401 15.2109 34.5445 15.2131 34.5487H4.28771V34.5488L2.15716 14.117H4.16619V25.3425C4.16619 26.1539 4.83775 26.8141 5.66318 26.8141H12.3011C13.1265 26.8141 13.7981 26.1539 13.7981 25.3425V17.6541V17.654H12.7537V17.6541V25.3425C12.7537 25.5878 12.5506 25.7874 12.3011 25.7874H10.8971V17.9275H9.85271V25.7874H8.11172V19.8438H7.06729V25.7874H5.66318C5.41361 25.7874 5.21062 25.5877 5.21062 25.3425V13.3412C5.21062 13.0959 5.41368 12.8964 5.66318 12.8964H9.85271V15.1893H10.8971V12.8964H12.3011C12.5507 12.8964 12.7537 13.096 12.7537 13.3412V16.2849V16.2849H13.7981V16.2849V14.117H15.7083C15.3625 14.6811 15.1474 15.258 15.0593 15.8537C15.0572 15.8679 15.0551 15.8822 15.053 15.8964C15.0474 15.9376 15.0417 15.9788 15.0373 16.0202C15.0305 16.0806 15.0254 16.1411 15.0213 16.2016C15.02 16.2228 15.019 16.2441 15.0178 16.2654C15.0141 16.3378 15.0116 16.4101 15.0116 16.4827V20.5288V21.5555V26.945V27.9717V33.7136C15.0117 33.7486 15.0129 33.7835 15.0147 33.818ZM24.9555 33.7136C24.9555 34.1741 24.5745 34.5486 24.1061 34.5486H16.9056C16.4371 34.5486 16.056 34.1741 16.056 33.7136V27.9716H24.9555V33.7136ZM24.9555 26.9449H16.056V21.5555H24.9555V26.9449ZM24.9555 20.5287H16.056V16.4826C16.056 16.4206 16.0581 16.3588 16.0617 16.2971C16.0626 16.2808 16.0642 16.2644 16.0654 16.2481C16.0689 16.2011 16.0729 16.1542 16.0785 16.1075C16.0803 16.0915 16.0825 16.0756 16.0846 16.0597C16.0913 16.009 16.0991 15.9584 16.1083 15.908C16.1101 15.8979 16.1118 15.8877 16.1137 15.8777C16.2126 15.3609 16.4399 14.8547 16.7994 14.3517C16.8048 14.3441 16.8103 14.3365 16.8158 14.3289C16.8535 14.2769 16.8927 14.2248 16.9332 14.1728C16.9427 14.1607 16.9521 14.1485 16.9617 14.1364C17.0017 14.0859 17.0432 14.0353 17.0859 13.9848C17.0947 13.9745 17.103 13.9641 17.1119 13.9537C17.2729 13.7656 17.4525 13.5777 17.6512 13.3897C19.4247 11.7111 19.4247 8.57802 19.4247 7.24018V5.88093H21.587V7.24004C21.587 8.57795 21.587 11.7111 23.3606 13.3896C24.434 14.4054 24.9556 15.4171 24.9555 16.4826V18.475H19.5162V19.5017H24.9555V20.5287Z" fill="#403377" stroke="#403377" stroke-width="0.564516"/>
</svg>
