<svg width="27" height="22" viewBox="0 0 27 22" fill="none" xmlns="http://www.w3.org/2000/svg">
<path d="M3.88477 12V17.0769" stroke="black" stroke-width="1.5" stroke-miterlimit="10" stroke-linecap="round" stroke-linejoin="round"/>
<path d="M23.1152 17.0769V12" stroke="black" stroke-width="1.5" stroke-miterlimit="10" stroke-linecap="round" stroke-linejoin="round"/>
<path d="M26 20.4615H1L2.92308 17.0769H24.0769L26 20.4615Z" stroke="black" stroke-width="1.5" stroke-miterlimit="10" stroke-linecap="round" stroke-linejoin="round"/>
<path d="M25.0385 6.92308H1.96155L4.84616 1H22.1539L25.0385 6.92308Z" stroke="black" stroke-width="1.5" stroke-miterlimit="10" stroke-linecap="round" stroke-linejoin="round"/>
<path d="M13.4998 12C11.3845 12 9.65369 10.4769 9.65369 8.6154V6.9231H17.346V8.6154C17.346 10.4769 15.6152 12 13.4998 12Z" stroke="black" stroke-width="1.5" stroke-miterlimit="10" stroke-linecap="round" stroke-linejoin="round"/>
<path d="M5.8077 12C3.69232 12 1.96155 10.4769 1.96155 8.6154V6.9231H9.65386V8.6154C9.65386 10.4769 7.92309 12 5.8077 12Z" stroke="black" stroke-width="1.5" stroke-miterlimit="10" stroke-linecap="round" stroke-linejoin="round"/>
<path d="M21.1925 12C19.0771 12 17.3463 10.4769 17.3463 8.6154V6.9231H25.0386V8.6154C25.0386 10.4769 23.3079 12 21.1925 12Z" stroke="black" stroke-width="1.5" stroke-miterlimit="10" stroke-linecap="round" stroke-linejoin="round"/>
</svg>
