<svg width="57" height="54" viewBox="0 0 57 54" fill="none" xmlns="http://www.w3.org/2000/svg">
<path d="M10.6047 43.2448C9.53456 40.8625 9.53456 40.8625 8.58198 38.3024C7.78151 35.7575 7.40517 34.3895 7.10353 32.2515C5.5858 24.8475 9.60857 15.6348 9.60857 15.6348C9.60857 15.6348 4.88778 22.7889 5.67403 32.3971C5.97101 34.8948 6.08558 36.1532 6.69187 38.8341C7.47603 41.663 7.62825 41.8406 8.44306 44.342C9.06078 45.9126 10.2992 48.3497 10.7948 49.2277C10.2064 48.8984 9.61416 48.8001 9.20542 49.0934C8.55471 49.5436 7.54981 51.7083 8.5166 52.8304C9.48456 53.9562 11.8015 53.3129 12.3434 52.734C12.8959 52.1662 12.6036 50.9818 11.7881 50.0281C12.1427 50.1077 12.5281 50.0565 12.8608 49.8503C13.5365 49.4321 13.7455 48.5466 13.3275 47.8712C10.2841 42.9533 11.3502 44.7697 10.6047 43.2448Z" fill="#9B6C11"/>
<path d="M12.9234 13.7653C13.5232 12.8551 15.0928 10.2003 14.5933 9.6347C14.018 9.02537 11.3076 11.0142 10.6112 12.0623C9.86759 13.0671 9.89417 14.2534 10.5695 14.6659C11.2479 15.0803 12.262 14.6603 12.9234 13.7653Z" fill="#9B6C11"/>
<path d="M10.7975 20.4729C11.5677 19.9525 13.5185 18.2664 13.4181 17.4076C13.3121 16.488 10.9669 16.6431 10.0927 17.1275C9.22141 17.5684 8.66709 18.7888 8.90835 19.7255C9.14856 20.6656 10.0152 20.9441 10.7975 20.4729Z" fill="#9B6C11"/>
<path d="M14.3302 45.3163C13.686 45.7762 13.6916 46.8849 14.4344 47.7461C15.1742 48.6068 16.2914 48.8018 16.844 48.2322C17.3889 47.6532 18.2934 45.6307 17.7022 44.9378C17.107 44.2492 14.984 44.8643 14.3302 45.3163Z" fill="#9B6C11"/>
<path d="M7.57345 27.472C8.06821 28.2855 8.97835 28.3101 9.59619 27.6632C10.1601 26.9214 12.3881 24.0436 12.0947 23.3227C11.7494 22.46 8.6491 24.0115 7.96704 24.7436C7.26237 25.3812 7.07869 26.6639 7.57345 27.472Z" fill="#9B6C11"/>
<path d="M10.7163 35.101C11.0826 34.0888 12.653 30.3309 12.1126 29.6688C11.4609 28.8362 8.47589 31.4287 7.9556 32.4653C7.37378 33.3868 7.59138 34.8609 8.41342 35.5779C9.23568 36.2987 10.25 36.0075 10.7163 35.101Z" fill="#9B6C11"/>
<path d="M11.6292 43.7609C12.7976 44.2606 13.7779 43.5625 13.9442 42.4044C13.9357 41.1498 14.3748 36.5805 13.596 36.0658C12.6111 35.3712 10.1893 39.1558 10.0002 40.4934C9.68611 41.7063 10.4637 43.2672 11.6292 43.7609Z" fill="#9B6C11"/>
<path d="M7.39948 19.1276C8.22058 18.5581 8.75613 17.3831 8.65205 16.3804C8.50904 15.4075 7.70298 13.0122 6.75879 13.506C5.74072 14.0304 5.24794 17.368 5.51007 18.3803C5.71263 19.4171 6.58105 19.6932 7.39948 19.1276Z" fill="#9B6C11"/>
<path d="M4.9473 27.2241C5.57633 26.4444 5.76176 25.1655 5.37749 24.2346C4.92073 23.3829 3.27177 19.8201 2.50451 20.5051C1.58306 21.2942 2.33213 26.1647 2.92456 27.033C3.4079 27.9752 4.31909 27.9998 4.9473 27.2241Z" fill="#9B6C11"/>
<path d="M5.05132 36.2742C5.47999 35.1824 5.26134 33.6877 4.53651 32.77C3.7449 31.9716 0.806411 28.4541 0.162932 29.4663C-0.645932 30.6564 1.76936 35.9791 2.74862 36.7529C3.60946 37.6555 4.62369 37.3641 5.05132 36.2742Z" fill="#9B6C11"/>
<path d="M8.54985 45.5665C8.59344 44.2022 7.81465 42.6372 6.70508 41.8671C5.55286 41.275 1.16972 38.3177 0.806546 39.6516C0.289059 41.2637 4.83956 46.4216 6.23491 46.9211C7.5242 47.6231 8.50451 46.9247 8.54985 45.5665Z" fill="#9B6C11"/>
<path d="M47.7946 49.0934C47.386 48.8001 46.7937 48.8984 46.2051 49.2277C46.7009 48.3497 47.9392 45.9126 48.5572 44.342C49.3717 41.8406 49.524 41.663 50.3083 38.8341C50.9147 36.1531 51.0291 34.8947 51.3262 32.3971C52.1122 22.7889 47.3914 15.6348 47.3914 15.6348C47.3914 15.6348 51.4142 24.8475 49.8967 32.2515C49.5948 34.3895 49.2184 35.7575 48.4179 38.3024C47.4652 40.8625 47.4652 40.8625 46.3952 43.2448C45.6498 44.7697 46.716 42.9533 43.6724 47.8709C43.2544 48.5465 43.4634 49.432 44.1389 49.8501C44.472 50.0564 44.8569 50.1074 45.2117 50.0278C44.3962 50.9816 44.1038 52.166 44.6563 52.7338C45.1985 53.3127 47.5155 53.9559 48.4832 52.8302C49.4502 51.7083 48.4455 49.5437 47.7946 49.0934Z" fill="#9B6C11"/>
<path d="M42.407 9.6347C41.9073 10.2004 43.477 12.8552 44.0768 13.7653C44.7381 14.6603 45.7521 15.0803 46.4305 14.6659C47.1059 14.2534 47.1324 13.0671 46.3888 12.0623C45.6927 11.0142 42.982 9.02537 42.407 9.6347Z" fill="#9B6C11"/>
<path d="M46.907 17.1277C46.0328 16.6434 43.6876 16.4883 43.5816 17.4077C43.4813 18.2666 45.4322 19.9526 46.202 20.473C46.9844 20.9442 47.8512 20.6658 48.0914 19.7257C48.3326 18.789 47.7784 17.5686 46.907 17.1277Z" fill="#9B6C11"/>
<path d="M39.298 44.9378C38.7066 45.6305 39.6111 47.6532 40.156 48.2322C40.7083 48.8018 41.8257 48.6068 42.5657 47.7461C43.3083 46.8849 43.3138 45.7764 42.6697 45.3163C42.0159 44.8643 39.893 44.2492 39.298 44.9378Z" fill="#9B6C11"/>
<path d="M49.0329 24.7434C48.3507 24.0113 45.2504 22.4597 44.9052 23.3225C44.6117 24.0435 46.8398 26.9212 47.4037 27.663C48.0215 28.3101 48.9314 28.2855 49.4264 27.4718C49.9213 26.6638 49.7376 25.3811 49.0329 24.7434Z" fill="#9B6C11"/>
<path d="M48.5863 35.5777C49.4084 34.8607 49.626 33.3865 49.0441 32.4651C48.5239 31.4284 45.5391 28.8359 44.8871 29.6686C44.347 30.3308 45.9175 34.0886 46.2835 35.1008C46.7501 36.0074 47.7641 36.2986 48.5863 35.5777Z" fill="#9B6C11"/>
<path d="M43.4039 36.066C42.6251 36.5807 43.0641 41.1501 43.0557 42.4047C43.2223 43.5627 44.2024 44.2608 45.3707 43.7612C46.5363 43.2675 47.3141 41.7065 46.9999 40.4938C46.8107 39.156 44.3887 35.3715 43.4039 36.066Z" fill="#9B6C11"/>
<path d="M49.6006 19.1276C50.4189 19.6933 51.2875 19.4171 51.4898 18.3803C51.752 17.3679 51.2591 14.0304 50.2412 13.506C49.2969 13.0122 48.4909 15.4075 48.3482 16.3804C48.2438 17.3831 48.7794 18.5581 49.6006 19.1276Z" fill="#9B6C11"/>
<path d="M52.053 27.2239C52.6811 27.9997 53.5922 27.9751 54.0757 27.0328C54.668 26.1645 55.4172 21.2939 54.4957 20.5049C53.7285 19.8199 52.0794 23.3826 51.6224 24.2344C51.2385 25.1654 51.4238 26.4442 52.053 27.2239Z" fill="#9B6C11"/>
<path d="M52.4636 32.7698C51.739 33.6876 51.5204 35.1822 51.9491 36.2741C52.3767 37.3639 53.3907 37.6553 54.2516 36.7526C55.2308 35.9788 57.6461 30.6562 56.8372 29.4661C56.194 28.4538 53.2555 31.9715 52.4636 32.7698Z" fill="#9B6C11"/>
<path d="M50.2949 41.8671C49.1853 42.6372 48.4066 44.2022 48.4502 45.5665C48.4957 46.9247 49.4758 47.6232 50.7652 46.9211C52.1606 46.4216 56.7114 41.2637 56.1938 39.6516C55.8305 38.3177 51.4473 41.275 50.2949 41.8671Z" fill="#9B6C11"/>
<path d="M36.6593 19.3774L42.9733 2.7529L40.7095 1.8938L34.5374 18.1472C35.2819 18.4992 35.9924 18.908 36.6593 19.3774Z" fill="#9B6C11"/>
<path d="M37.9924 0.860935L35.7283 0.00195312L29.3396 16.8228C30.1797 16.8739 30.9991 16.9932 31.7946 17.1825L37.9924 0.860935Z" fill="#9B6C11"/>
<path d="M27.6614 16.8228L21.2717 0L19.0078 0.858981L25.2063 17.1825C26.002 16.9931 26.8213 16.8723 27.6614 16.8228Z" fill="#9B6C11"/>
<path d="M22.4638 18.1474L16.2905 1.89209L14.0267 2.75119L20.3408 19.3774C21.0077 18.9061 21.7191 18.4975 22.4638 18.1474Z" fill="#9B6C11"/>
<path d="M28.4996 18.7188C21.7238 18.7188 16.2319 24.2117 16.2319 30.9855C16.2319 37.7611 21.7238 43.254 28.4996 43.254C35.2744 43.254 40.7672 37.7611 40.7672 30.9855C40.7672 24.2117 35.2744 18.7188 28.4996 18.7188ZM28.4996 40.5087C23.249 40.5087 18.9774 36.2361 18.9774 30.9855C18.9774 25.7347 23.249 21.4642 28.4996 21.4642C33.7503 21.4642 38.0219 25.7348 38.0219 30.9855C38.0219 36.2361 33.7501 40.5087 28.4996 40.5087Z" fill="#9B6C11"/>
<path d="M28.4996 23.4019C24.3168 23.4019 20.915 26.8037 20.915 30.9855C20.915 35.1691 24.3168 38.571 28.4996 38.571C32.682 38.571 36.0842 35.1691 36.0842 30.9855C36.0842 26.8037 32.682 23.4019 28.4996 23.4019Z" fill="#9B6C11"/>
</svg>
