<svg width="28" height="27" viewBox="0 0 28 27" fill="none" xmlns="http://www.w3.org/2000/svg">
<path fill-rule="evenodd" clip-rule="evenodd" d="M8.95796 0H18.858C23.4136 0 27.108 3.69435 27.108 8.25V18.15C27.108 22.7056 23.4136 26.4 18.858 26.4H8.95796C4.40231 26.4 0.707962 22.7056 0.707962 18.15V8.25C0.707962 3.69435 4.40231 0 8.95796 0ZM18.858 23.9249C22.0425 23.9249 24.633 21.3344 24.633 18.1499V8.2499C24.633 5.0654 22.0425 2.4749 18.858 2.4749H8.95796C5.77346 2.4749 3.18296 5.0654 3.18296 8.2499V18.1499C3.18296 21.3344 5.77346 23.9249 8.95796 23.9249H18.858Z" fill="white"/>
<path fill-rule="evenodd" clip-rule="evenodd" d="M7.30835 13.2C7.30835 9.55513 10.2635 6.59998 13.9083 6.59998C17.5532 6.59998 20.5083 9.55513 20.5083 13.2C20.5083 16.8448 17.5532 19.8 13.9083 19.8C10.2635 19.8 7.30835 16.8448 7.30835 13.2ZM9.78335 13.2C9.78335 15.4737 11.6346 17.325 13.9083 17.325C16.182 17.325 18.0333 15.4737 18.0333 13.2C18.0333 10.9246 16.182 9.07498 13.9083 9.07498C11.6346 9.07498 9.78335 10.9246 9.78335 13.2Z" fill="white"/>
<circle cx="21.003" cy="6.10504" r="0.87945" fill="white"/>
</svg>
