<svg width="27" height="22" viewBox="0 0 27 22" fill="none" xmlns="http://www.w3.org/2000/svg">
<path d="M26.708 3.01433C25.7262 3.44498 24.6801 3.73043 23.5895 3.86903C24.7115 3.19913 25.5678 2.14643 25.9704 0.877576C24.9243 1.50128 23.7693 1.94183 22.5384 2.18768C21.5451 1.13003 20.1294 0.474976 18.585 0.474976C15.5886 0.474976 13.1763 2.90708 13.1763 5.88863C13.1763 6.31763 13.2126 6.73013 13.3017 7.12283C8.80217 6.90338 4.82072 4.74683 2.14607 1.46168C1.67912 2.27183 1.40522 3.19913 1.40522 4.19738C1.40522 6.07178 2.37047 7.73333 3.80927 8.69528C2.93972 8.67878 2.08667 8.42633 1.36397 8.02868C1.36397 8.04518 1.36397 8.06663 1.36397 8.08808C1.36397 10.7182 3.24002 12.9028 5.70017 13.406C5.25962 13.5265 4.77947 13.5842 4.28117 13.5842C3.93467 13.5842 3.58487 13.5644 3.25652 13.4918C3.95777 15.6352 5.94767 17.2109 8.31377 17.2621C6.47237 18.7025 4.13432 19.5704 1.60322 19.5704C1.15937 19.5704 0.733668 19.5506 0.307968 19.4962C2.70542 21.0422 5.54672 21.925 8.61077 21.925C18.5702 21.925 24.0152 13.675 24.0152 6.52388C24.0152 6.28463 24.0069 6.05363 23.9954 5.82428C25.0695 5.06198 25.9721 4.10993 26.708 3.01433Z" fill="white"/>
</svg>
