<svg width="27" height="27" viewBox="0 0 27 27" fill="none" xmlns="http://www.w3.org/2000/svg">
<path fill-rule="evenodd" clip-rule="evenodd" d="M2.2704 19.5893L0 26.4L7.392 24.455C9.19494 25.4045 11.2478 25.9448 13.4276 25.9448C20.592 25.9448 26.4 20.1368 26.4 12.9724C26.4 5.808 20.592 0 13.4276 0C6.26317 0 0.455172 5.808 0.455172 12.9724C0.455172 15.3903 1.11836 17.6516 2.2704 19.5893ZM18.896 14.8632C18.896 14.8632 21.105 16.1577 21.704 17.2897C21.9589 17.7708 21.8701 18.3621 21.485 18.7481L20.6848 19.5483C18.1463 22.0868 15.2806 20.8369 12.7421 18.2984L10.4221 15.9784L8.10206 13.6583C5.56356 11.1198 4.31366 8.25408 6.85215 5.71558L7.65235 4.91539C8.03742 4.53031 8.62869 4.4411 9.11026 4.696C10.2423 5.295 11.5368 7.50395 11.5368 7.50395C11.8217 8.00373 11.8536 8.60638 11.3456 8.89178C11.3456 8.89178 10.4849 9.60958 10.3611 9.79211C9.79621 10.626 9.81806 11.3984 10.5978 12.1781L12.4098 13.9902L14.2219 15.8022C15.0016 16.5819 15.774 16.6038 16.6079 16.0389C16.7904 15.9151 17.5082 15.0544 17.5082 15.0544C17.7931 14.5464 18.3962 14.5782 18.896 14.8632Z" fill="white"/>
</svg>
